<svg version="1.1" id="Layer_1" xmlns="http://www.w3.org/2000/svg" xmlns:xlink="http://www.w3.org/1999/xlink" x="0px" y="0px"
	 width="100%" viewBox="0 0 512 512" enable-background="new 0 0 512 512" xml:space="preserve">
<path fill="#FFFFFF" opacity="1.000000" stroke="none" 
	d="
M269.000000,513.000000 
	C179.355087,513.000000 90.210175,513.000000 1.032630,513.000000 
	C1.032630,342.396729 1.032630,171.793442 1.032630,1.095084 
	C171.561600,1.095084 342.123260,1.095084 512.842468,1.095084 
	C512.842468,171.666550 512.842468,342.333252 512.842468,513.000000 
	C431.793427,513.000000 350.646698,513.000000 269.000000,513.000000 
M475.000305,316.500000 
	C475.000305,224.073273 475.000305,131.646545 475.000305,39.285793 
	C329.358765,39.285793 184.289642,39.285793 39.285809,39.285793 
	C39.285809,184.641281 39.285809,329.710419 39.285809,474.714111 
	C184.641312,474.714111 329.710449,474.714111 475.000305,474.714111 
	C475.000305,422.118835 475.000305,369.809418 475.000305,316.500000 
z"/>
<path fill="#000000" opacity="1.000000" stroke="none" 
	d="
M475.000305,317.000000 
	C475.000305,369.809418 475.000305,422.118835 475.000305,474.714111 
	C329.710449,474.714111 184.641312,474.714111 39.285809,474.714111 
	C39.285809,329.710419 39.285809,184.641281 39.285809,39.285793 
	C184.289642,39.285793 329.358765,39.285793 475.000305,39.285793 
	C475.000305,131.646545 475.000305,224.073273 475.000305,317.000000 
M354.494659,212.127167 
	C354.207916,212.303345 354.031158,212.556381 353.692230,213.443741 
	C352.644257,214.064896 351.596283,214.686066 349.649780,215.111740 
	C348.436676,215.090652 347.223602,215.069565 345.563324,214.492340 
	C343.310577,212.997437 341.057831,211.502548 338.515320,209.410797 
	C336.690979,207.905075 334.866638,206.399368 333.029083,204.117661 
	C331.663757,202.207367 330.298401,200.297058 328.711945,198.077347 
	C330.057709,198.077347 331.469635,198.077347 332.945465,198.043442 
	C332.945465,198.043442 332.943665,198.115234 333.276276,198.567749 
	C333.633209,198.621765 333.990143,198.675797 334.696075,198.774612 
	C334.696075,198.774612 334.999481,198.952759 335.210541,199.435013 
	C335.813629,199.423615 336.416748,199.412231 337.799957,199.231766 
	C341.622833,197.504623 340.908569,195.567764 337.888733,192.890228 
	C336.487244,191.451202 335.085785,190.012161 333.987640,187.863251 
	C335.047028,184.274765 336.828125,180.344940 332.079803,178.137466 
	C328.573059,176.507202 324.359894,179.012375 322.334198,183.525955 
	C321.398041,185.611893 320.749481,187.826950 319.259430,189.964981 
	C318.310608,189.960281 317.361755,189.955566 316.002289,189.325729 
	C312.257751,185.824463 310.760986,186.104691 307.155914,190.874664 
	C306.768951,190.911606 306.381958,190.948547 305.516937,190.541046 
	C304.679443,189.682541 303.841949,188.824036 302.996521,188.005310 
	C302.996521,188.005310 303.035034,187.992294 303.174774,187.223053 
	C302.110596,186.544815 301.046417,185.866562 299.982239,185.188309 
	C299.421448,186.721863 298.860626,188.255417 298.066498,190.589905 
	C297.831635,192.207047 297.596741,193.824173 297.077423,196.042847 
	C296.798096,197.341522 296.518768,198.640198 295.541412,200.235016 
	C293.384338,200.822617 291.227295,201.410217 288.792419,201.094559 
	C288.558899,185.400375 288.325378,169.706177 288.563293,153.465622 
	C290.859497,148.838562 285.300598,148.323227 284.180420,145.392883 
	C283.727325,144.207550 281.151672,142.890320 279.916016,143.187683 
	C278.393005,143.554169 277.260223,145.542374 276.860840,145.937454 
	C279.645294,147.726746 281.643616,149.010864 283.170563,150.745285 
	C282.462677,151.547668 281.754761,152.350052 280.373749,153.226501 
	C278.469177,155.499252 276.564575,157.772003 274.624329,160.193512 
	C274.624329,160.193512 274.726562,160.307281 274.163605,160.637695 
	C273.970917,161.424484 273.778229,162.211258 273.189240,163.856171 
	C273.135315,169.240707 273.081390,174.625229 272.713562,180.480896 
	C272.786407,181.019089 272.859253,181.557281 272.549347,182.699280 
	C272.412750,183.154022 272.276154,183.608765 271.440521,184.301239 
	C266.686584,185.593002 261.987671,187.681381 257.167511,188.014374 
	C246.391464,188.758865 239.094452,194.258072 234.297333,203.313232 
	C232.236221,207.203873 231.373581,211.729416 229.175339,216.231079 
	C224.558380,216.650497 219.926956,216.951920 215.327652,217.515442 
	C207.274734,218.502106 203.199341,222.938828 202.894608,231.067368 
	C202.726440,235.553070 202.752014,240.052078 202.869446,244.540405 
	C202.954239,247.781021 201.970367,249.517914 198.339859,249.379181 
	C193.356781,249.188766 188.353531,249.197708 183.371643,249.414307 
	C179.741516,249.572144 178.740112,247.925323 178.886734,244.617035 
	C179.065475,240.584595 178.929260,236.538162 178.929260,232.166885 
	C161.834000,238.790298 160.638214,240.965225 160.548035,255.066437 
	C160.539520,256.397278 160.575424,257.729248 160.533630,259.058899 
	C160.346298,265.018311 160.138306,270.977020 159.009277,276.980621 
	C152.975327,276.980621 146.941376,276.980621 140.078079,276.980621 
	C140.956070,280.065094 141.251617,282.018066 142.046722,283.740448 
	C145.750427,291.763275 152.754517,294.531738 161.046738,295.827332 
	C161.716187,295.645966 162.385635,295.464600 163.680634,295.065369 
	C164.119339,295.049744 164.558060,295.034119 165.394669,295.516785 
	C166.945267,294.743927 168.495865,293.971039 170.457306,292.793457 
	C170.961044,292.524719 171.464783,292.255981 172.716110,292.025238 
	C174.797501,289.893494 177.612991,288.106323 178.808609,285.558868 
	C181.357330,280.128418 183.065628,274.303558 185.950180,268.396057 
	C187.680588,268.463379 189.411011,268.530701 191.845123,268.938843 
	C205.341507,268.984253 218.837875,269.039337 232.334305,269.071594 
	C240.657776,269.091461 243.071457,271.308624 242.953766,279.590393 
	C242.854843,286.552948 242.059723,293.511139 242.094452,300.468689 
	C242.143311,310.262543 242.626389,320.056122 243.066025,329.843445 
	C243.115158,330.937317 244.087814,331.989746 244.871948,333.881104 
	C244.687836,337.002014 246.024536,338.401337 249.265198,338.135132 
	C251.723236,337.933197 254.222412,337.963196 256.684418,338.145325 
	C259.894592,338.382782 261.093140,337.090790 261.046051,333.873169 
	C260.969025,328.606079 261.234619,323.334015 261.924835,317.928162 
	C262.279144,317.284637 262.633484,316.641083 263.727325,316.007477 
	C265.129272,316.963470 266.653870,317.783173 267.903625,318.908264 
	C269.660950,320.490295 271.214264,322.298950 272.921753,324.509430 
	C272.951660,324.674469 272.981567,324.839508 272.951202,325.774506 
	C273.278015,327.200653 273.604828,328.626770 273.924713,330.755493 
	C274.668060,332.149078 275.411377,333.542664 276.180634,335.616241 
	C281.197876,338.310425 285.945648,342.029541 291.301056,343.437714 
	C297.900665,345.173004 304.870148,344.411072 310.977753,339.004120 
	C312.349335,337.678772 313.720917,336.353424 315.793610,334.917236 
	C316.506226,333.235046 317.218842,331.552826 317.895691,329.084381 
	C318.173828,326.747162 318.451996,324.409912 319.373138,321.623260 
	C319.158112,319.725586 318.943085,317.827881 318.570740,315.012146 
	C318.430878,305.051208 318.291046,295.090302 318.548737,284.310394 
	C318.416504,282.828918 318.284241,281.347473 318.421173,279.010254 
	C318.938141,275.237335 319.455078,271.464447 320.891968,267.904297 
	C329.974884,267.909210 339.058685,267.987000 348.140228,267.878571 
	C351.224670,267.841766 354.303528,267.335419 358.099731,266.776917 
	C358.389374,266.038696 358.928162,265.301636 358.931488,264.562103 
	C358.984070,252.915726 358.990631,241.268860 358.921631,229.622635 
	C358.916412,228.738510 358.262573,227.858231 357.781219,226.243790 
	C357.823578,225.503922 357.865936,224.764053 358.472900,223.573776 
	C358.286041,222.039307 358.099213,220.504822 357.784363,218.127884 
	C357.821075,216.426056 357.857788,214.724228 358.421631,212.657364 
	C357.991455,211.825333 357.561310,210.993286 357.131134,210.161255 
	C356.414917,210.757919 355.698700,211.354584 354.997498,212.003387 
	C354.997498,212.003387 354.946594,211.984665 354.494659,212.127167 
M190.265564,278.988007 
	C186.471207,281.131775 184.379242,288.020050 186.439606,291.585815 
	C188.267883,294.749878 195.513290,296.198486 199.511810,293.812073 
	C200.214264,293.481323 200.916733,293.150574 202.428970,292.887787 
	C208.569809,290.544281 206.177719,285.147736 205.535553,281.419708 
	C205.115021,278.978333 201.520020,276.301849 198.767258,275.255615 
	C195.785385,274.122284 192.108856,274.717926 190.999390,279.000000 
	C190.999390,279.000000 191.029114,279.022949 190.265564,278.988007 
M230.512772,313.509766 
	C230.512772,308.279968 230.512772,303.050171 230.512772,296.749573 
	C225.784546,298.805420 222.495346,300.329254 219.135132,301.675903 
	C213.282211,304.021515 209.881516,308.170227 209.836853,314.561035 
	C209.796265,320.370178 210.146210,326.181030 210.239929,331.992462 
	C210.337891,338.066650 208.358383,343.061646 202.778107,346.229645 
	C191.658340,352.542572 180.035095,346.190460 178.008713,332.618744 
	C177.408005,328.595459 176.895493,324.558960 176.342560,320.528534 
	C175.777618,320.311005 175.212662,320.093475 174.647705,319.875916 
	C172.686340,321.903290 170.210892,323.637146 168.855865,326.010681 
	C163.958435,334.589233 165.347046,347.886810 172.249039,354.988922 
	C182.085907,365.110992 194.445343,368.083649 207.611328,363.787933 
	C220.197601,359.681305 228.461441,350.645477 229.914291,336.960815 
	C230.702301,329.538452 230.350494,321.995026 230.512772,313.509766 
z"/>
<path fill="#040102" opacity="1.000000" stroke="none" 
	d="
M289.070221,201.997803 
	C291.227295,201.410217 293.384338,200.822617 296.134155,200.303680 
	C299.517517,203.873978 302.308075,207.375580 305.057983,211.180054 
	C305.709961,212.014816 306.402588,212.546753 307.472839,213.056274 
	C309.570099,212.396667 311.289764,211.759476 313.206543,211.040955 
	C313.403656,210.959610 313.823975,210.889175 314.131622,210.913513 
	C314.958862,210.669281 315.478485,210.400696 316.197815,210.053589 
	C316.397583,209.975067 316.821228,209.906097 317.253906,209.938385 
	C319.801086,209.632507 321.915588,209.294327 324.400269,208.943436 
	C325.246887,208.817123 325.723328,208.703491 326.186584,208.691284 
	C326.173462,208.792694 326.025940,208.934372 326.223846,209.229584 
	C327.343597,209.649567 328.265442,209.774353 329.525513,209.934143 
	C331.220520,210.774155 332.577271,211.579147 334.030701,212.697586 
	C336.993561,214.651230 338.498444,213.761475 338.700653,210.390869 
	C338.659149,210.253906 338.805084,210.007660 338.805084,210.007660 
	C341.057831,211.502548 343.310577,212.997437 345.588928,215.107239 
	C343.755157,216.150436 341.891327,216.560379 340.037170,217.010315 
	C333.062042,218.702850 325.688171,219.524017 319.268158,222.441772 
	C315.434631,224.184036 310.870331,227.767197 311.515900,234.052155 
	C310.941528,235.575623 310.390045,236.769882 309.541595,238.003387 
	C309.251587,238.721634 309.258606,239.400620 309.267700,240.407562 
	C309.129395,241.146942 308.989044,241.558365 308.507660,242.033051 
	C305.933777,243.735031 303.786102,246.578888 301.449005,246.744156 
	C297.438721,247.027786 293.310059,245.638550 289.132751,244.506500 
	C289.085602,240.720840 289.136780,237.380264 289.466400,233.995621 
	C289.557587,233.288208 289.370361,232.624878 289.094910,231.502762 
	C289.027832,221.361923 289.049011,211.679871 289.070221,201.997803 
z"/>
<path fill="#D3753B" opacity="1.000000" stroke="none" 
	d="
M230.512787,314.007996 
	C230.350494,321.995026 230.702301,329.538452 229.914291,336.960815 
	C228.461441,350.645477 220.197601,359.681305 207.611328,363.787933 
	C194.445343,368.083649 182.085907,365.110992 172.249039,354.988922 
	C165.347046,347.886810 163.958435,334.589233 168.855865,326.010681 
	C170.210892,323.637146 172.686340,321.903290 174.647705,319.875916 
	C175.212662,320.093475 175.777618,320.311005 176.342560,320.528534 
	C176.895493,324.558960 177.408005,328.595459 178.008713,332.618744 
	C180.035095,346.190460 191.658340,352.542572 202.778107,346.229645 
	C208.358383,343.061646 210.337891,338.066650 210.239929,331.992462 
	C210.146210,326.181030 209.796265,320.370178 209.836853,314.561035 
	C209.881516,308.170227 213.282211,304.021515 219.135132,301.675903 
	C222.495346,300.329254 225.784546,298.805420 230.512772,296.749573 
	C230.512772,303.050171 230.512772,308.279968 230.512787,314.007996 
M226.996155,307.102631 
	C226.105728,306.115601 225.314743,304.414581 224.306396,304.274109 
	C221.165665,303.836731 214.253250,309.570984 214.019226,312.877167 
	C213.492722,320.315216 213.363159,327.780487 212.953613,335.228180 
	C212.846436,337.177094 212.783173,339.367615 211.880753,340.992218 
	C207.968658,348.035217 201.927551,352.032410 193.729111,351.934448 
	C185.816162,351.839905 180.213928,347.733704 176.964325,340.700165 
	C175.276566,337.047150 174.321594,333.055573 172.837982,328.627045 
	C171.762009,329.559174 170.455826,330.124176 170.281982,330.932648 
	C169.091507,336.469116 168.603073,341.997009 171.153687,347.395874 
	C175.587784,356.781525 186.794662,361.903809 199.040009,362.239838 
	C212.132019,362.599152 226.259903,349.861359 226.953171,336.786163 
	C227.460800,327.212128 227.027496,317.588226 226.996155,307.102631 
z"/>
<path fill="#F58133" opacity="1.000000" stroke="none" 
	d="
M315.092499,335.028107 
	C313.720917,336.353424 312.349335,337.678772 310.267334,339.042816 
	C300.087891,343.413208 290.742004,343.485992 281.569702,338.233215 
	C279.736572,337.183411 277.958282,336.037720 276.154724,334.936249 
	C275.411377,333.542664 274.668060,332.149078 274.223755,330.211914 
	C276.365326,328.184235 278.207794,326.700134 280.507355,325.123535 
	C287.881012,324.971130 294.797638,324.911163 302.101074,324.879517 
	C307.411133,321.354187 307.115326,315.279297 301.918701,312.065491 
	C301.972656,312.020599 301.897644,312.139221 301.861084,311.725525 
	C300.356445,310.877350 298.900391,310.123962 297.418030,310.068176 
	C292.952667,309.899963 288.451874,310.292877 284.013519,309.907349 
	C280.583557,309.609344 275.818481,309.932617 275.387482,305.169067 
	C274.905396,299.840393 275.733063,294.393188 276.371216,289.076965 
	C277.056396,291.296326 277.434296,293.428864 277.653259,295.577576 
	C278.604736,304.914154 276.170807,307.520294 287.251251,307.025970 
	C290.905151,306.862976 294.578186,306.877380 298.232483,307.037689 
	C302.856750,307.240509 308.738464,311.649628 308.996613,314.885010 
	C309.695801,323.649017 307.103485,328.384552 300.246918,329.900452 
	C296.728760,330.678253 293.036682,330.686340 289.418793,330.989319 
	C287.376099,331.160400 285.324371,331.224091 282.682861,331.368652 
	C284.931793,337.118927 289.227905,337.578918 293.637665,338.445404 
	C305.236145,340.724396 315.932617,330.173096 313.801025,318.567810 
	C313.093597,314.716187 313.242249,310.676270 313.288239,306.725830 
	C313.336304,302.599152 313.881775,298.478821 313.944244,294.351685 
	C314.066376,286.285187 313.835571,278.210663 314.086700,270.149933 
	C314.216888,265.971039 317.708557,263.945923 321.849548,265.258423 
	C321.116913,266.233521 320.544464,266.962524 319.972015,267.691528 
	C319.455078,271.464447 318.938141,275.237335 317.969666,279.500183 
	C315.238617,282.009949 314.676147,283.818298 318.151184,285.129364 
	C318.291046,295.090302 318.430878,305.051208 318.455170,315.767181 
	C318.469788,318.372375 318.599976,320.222534 318.730164,322.072693 
	C318.451996,324.409912 318.173828,326.747162 317.586731,329.597534 
	C316.549377,331.749817 315.820923,333.388977 315.092499,335.028107 
M316.493561,274.597504 
	C316.493561,274.597504 316.415924,274.475067 316.493561,274.597504 
z"/>
<path fill="#040102" opacity="1.000000" stroke="none" 
	d="
M272.854828,324.010712 
	C271.214264,322.298950 269.660950,320.490295 267.903625,318.908264 
	C266.653870,317.783173 265.129272,316.963470 263.354797,315.558716 
	C262.985168,312.740753 262.988068,310.371552 263.353210,307.942261 
	C264.702362,306.086273 266.371429,304.353882 266.545654,302.482330 
	C267.029419,297.285553 266.763367,292.023987 267.046783,286.801758 
	C267.217346,283.658691 265.851410,282.659668 262.988220,282.535217 
	C262.983429,280.581116 262.982361,279.090576 262.982758,277.600006 
	C262.984802,269.831970 262.984924,269.831970 270.412140,268.441711 
	C271.838165,268.457336 272.876190,268.548706 274.027893,268.978943 
	C274.073486,272.362335 274.881012,275.777161 273.778412,278.384186 
	C269.984222,287.355591 269.976898,296.688141 270.102081,306.074860 
	C270.119720,307.396881 271.276550,308.703735 272.026367,310.294189 
	C272.419769,311.106903 272.692963,311.643036 273.071991,312.564331 
	C274.705292,313.296692 276.227051,313.910431 277.761292,313.943390 
	C283.381592,314.064240 289.007324,314.063019 294.628479,313.964600 
	C297.780334,313.909393 300.046204,314.234924 300.104523,318.364899 
	C300.166656,322.765381 297.765930,323.165771 294.397583,323.025360 
	C291.260864,322.894592 288.107819,322.871948 284.973724,323.031952 
	C280.927979,323.238434 276.893921,323.673889 272.854828,324.010712 
z"/>
<path fill="#D3763C" opacity="1.000000" stroke="none" 
	d="
M171.968536,291.987244 
	C171.464783,292.255981 170.961044,292.524719 169.904312,292.976746 
	C167.899796,293.779510 166.448273,294.398987 164.996765,295.018494 
	C164.558060,295.034119 164.119339,295.049744 163.023529,295.041931 
	C161.892410,295.110809 161.418396,295.203156 160.944397,295.295532 
	C152.754517,294.531738 145.750427,291.763275 142.046722,283.740448 
	C141.251617,282.018066 140.956070,280.065094 140.078079,276.980621 
	C146.941376,276.980621 152.975327,276.980621 159.547394,277.034424 
	C160.085510,277.088196 160.233261,277.240356 160.103760,277.530975 
	C158.978973,278.541443 157.983704,279.261292 156.589767,279.980377 
	C155.127991,279.983978 154.064880,279.988312 152.582443,279.988831 
	C150.218369,280.506958 148.273621,281.028931 146.328888,281.550903 
	C147.341446,283.653564 148.221527,285.837952 149.440109,287.813538 
	C149.853882,288.484314 151.121643,288.628326 152.351547,289.076630 
	C154.464600,289.771576 156.225266,290.402954 158.263123,291.315857 
	C167.327042,294.034027 175.080902,286.466278 175.990036,277.759033 
	C177.235260,265.833130 178.109985,265.026154 190.006592,265.015594 
	C191.005615,265.014709 192.004639,265.005371 193.469513,265.005066 
	C198.622482,265.007568 203.309586,265.005005 208.451172,265.008545 
	C211.938324,265.010193 214.970993,265.005707 218.447388,265.006287 
	C221.259537,265.007965 223.627930,265.004608 226.397003,265.007568 
	C227.866226,265.010468 228.934753,265.007050 230.419418,265.008240 
	C232.222702,265.010559 233.609863,265.008331 235.412994,265.011536 
	C238.542877,266.039307 241.256760,267.061676 243.506378,268.140411 
	C236.545715,268.180786 230.048767,268.103271 223.553085,268.162720 
	C212.748779,268.261597 201.945267,268.448303 191.141418,268.598022 
	C189.411011,268.530701 187.680588,268.463379 185.134583,268.345734 
	C180.630554,267.621735 178.626755,268.753601 179.054871,272.903748 
	C179.828339,280.402283 177.413071,286.770630 171.968536,291.987244 
z"/>
<path fill="#D3763C" opacity="1.000000" stroke="none" 
	d="
M160.011642,277.012085 
	C160.138306,270.977020 160.346298,265.018311 160.533630,259.058899 
	C160.575424,257.729248 160.539520,256.397278 160.548035,255.066437 
	C160.638214,240.965225 161.834000,238.790298 178.929260,232.166885 
	C178.929260,236.538162 179.065475,240.584595 178.886734,244.617035 
	C178.740112,247.925323 179.741516,249.572144 183.371643,249.414307 
	C188.353531,249.197708 193.356781,249.188766 198.339859,249.379181 
	C201.970367,249.517914 202.954239,247.781021 202.869446,244.540405 
	C202.752014,240.052078 202.726440,235.553070 202.894608,231.067368 
	C203.199341,222.938828 207.274734,218.502106 215.327652,217.515442 
	C219.926956,216.951920 224.558380,216.650497 229.642624,216.169891 
	C230.109909,216.108719 230.253357,216.250931 230.124405,216.581909 
	C227.992615,217.935043 225.989777,218.957214 223.656219,219.978699 
	C222.884567,219.983124 222.443649,219.988235 221.557159,219.988953 
	C207.883881,218.729538 206.307724,226.222488 205.012894,235.032532 
	C204.233444,240.335953 203.654388,245.668839 202.992630,250.994232 
	C203.000000,251.000000 202.988785,250.984680 202.606583,250.992401 
	C200.140778,251.649887 198.057190,252.299667 195.605072,252.952576 
	C194.499557,252.952774 193.762527,252.949829 192.728867,252.662781 
	C184.728439,252.308212 177.021790,252.364105 175.140823,242.206650 
	C174.867264,240.729263 173.392731,239.474274 172.473923,238.116364 
	C170.969086,239.404053 169.464264,240.691757 167.744125,242.084442 
	C167.260056,242.384384 167.076920,242.640579 166.588135,243.021713 
	C165.461426,244.572296 164.162216,246.033020 164.091843,247.550735 
	C163.838043,253.024261 163.998184,258.516968 163.997223,264.376831 
	C163.994965,265.499969 163.997482,266.248779 163.994354,267.431458 
	C163.746918,271.394958 165.257294,275.626434 160.233261,277.240356 
	C160.233261,277.240356 160.085510,277.088196 160.011642,277.012085 
z"/>
<path fill="#D8783E" opacity="1.000000" stroke="none" 
	d="
M289.187958,234.039703 
	C289.136780,237.380264 289.085602,240.720840 288.995148,244.820877 
	C288.359467,248.223480 289.559998,249.165161 292.109100,249.212616 
	C297.062347,249.304779 302.012573,249.559982 306.911621,250.171326 
	C303.248138,251.061035 299.644653,251.841980 296.024445,251.929169 
	C287.868744,252.125580 286.018433,250.115051 286.013702,241.737213 
	C286.001862,220.812317 286.011169,199.887436 286.009247,178.962540 
	C286.008728,173.070007 285.933990,167.176575 286.014862,161.285233 
	C286.072845,157.063751 283.780518,155.736694 280.118256,155.711395 
	C280.507446,154.670486 280.777161,153.911469 281.046844,153.152435 
	C281.754761,152.350052 282.462677,151.547668 283.744385,150.474091 
	C285.576080,151.472580 286.833954,152.742294 288.091827,154.011993 
	C288.325378,169.706177 288.558899,185.400375 288.931335,201.546188 
	C289.049011,211.679871 289.027832,221.361923 288.973480,231.842407 
	C289.022858,233.107117 289.105408,233.573410 289.187958,234.039703 
z"/>
<path fill="#D3763C" opacity="1.000000" stroke="none" 
	d="
M261.355713,318.064026 
	C261.234619,323.334015 260.969025,328.606079 261.046051,333.873169 
	C261.093140,337.090790 259.894592,338.382782 256.684418,338.145325 
	C254.222412,337.963196 251.723236,337.933197 249.265198,338.135132 
	C246.024536,338.401337 244.687836,337.002014 244.889679,333.015076 
	C244.952835,311.103607 244.998245,290.058167 245.437912,269.094116 
	C246.217804,270.852509 246.931076,272.527985 246.938736,274.206726 
	C247.021469,292.322601 246.980911,310.439026 247.003342,328.555298 
	C247.009293,333.364838 249.510757,336.298340 253.589050,335.929535 
	C257.972168,335.533173 259.201996,332.527191 259.021576,328.531158 
	C258.640869,320.099152 258.071320,311.662476 258.092010,303.228973 
	C258.116394,293.298187 258.624634,283.365967 259.094025,273.442474 
	C259.149658,272.267212 260.281281,271.142853 261.026184,270.452759 
	C261.210724,286.628387 261.283203,302.346222 261.355713,318.064026 
z"/>
<path fill="#D8783E" opacity="1.000000" stroke="none" 
	d="
M309.838623,237.964142 
	C310.390045,236.769882 310.941528,235.575623 311.808533,233.889145 
	C317.672333,224.469849 325.404358,219.790283 336.199554,219.389908 
	C341.026306,219.210861 345.767975,216.738708 350.548279,215.307220 
	C351.596283,214.686066 352.644257,214.064896 354.075439,213.124435 
	C354.621307,212.531647 354.783936,212.258148 354.946594,211.984650 
	C354.946594,211.984665 354.997498,212.003387 355.309235,212.011169 
	C356.378815,212.353439 357.136688,212.687927 357.894531,213.022400 
	C357.857788,214.724228 357.821075,216.426056 357.677246,218.691956 
	C357.456940,219.536743 357.292877,219.783676 356.669006,219.957703 
	C353.817566,219.668488 351.289520,218.891464 348.949280,219.271332 
	C342.953705,220.244492 337.020416,221.643005 331.105408,223.052673 
	C328.282318,223.725479 324.572296,223.982285 322.983551,225.872681 
	C319.123138,230.466064 316.269073,235.905212 313.003662,241.335419 
	C312.995972,242.109634 312.994263,242.552063 312.720276,243.229187 
	C311.179565,245.254089 309.911102,247.044312 308.646179,248.405029 
	C308.716064,245.973602 308.782379,243.971680 308.848663,241.969772 
	C308.989044,241.558365 309.129395,241.146942 309.499786,240.217499 
	C309.766052,239.121033 309.802338,238.542587 309.838623,237.964142 
z"/>
<path fill="#280E07" opacity="1.000000" stroke="none" 
	d="
M245.043655,269.012756 
	C244.998245,290.058167 244.952835,311.103607 244.769806,332.605194 
	C244.087814,331.989746 243.115158,330.937317 243.066025,329.843445 
	C242.626389,320.056122 242.143311,310.262543 242.094452,300.468689 
	C242.059723,293.511139 242.854843,286.552948 242.953766,279.590393 
	C243.071457,271.308624 240.657776,269.091461 232.334305,269.071594 
	C218.837875,269.039337 205.341507,268.984253 191.493271,268.768433 
	C201.945267,268.448303 212.748779,268.261597 223.553085,268.162720 
	C230.048767,268.103271 236.545715,268.180786 243.675369,268.306030 
	C244.538528,268.633087 244.783524,268.832214 245.043655,269.012756 
z"/>
<path fill="#D3763C" opacity="1.000000" stroke="none" 
	d="
M319.970581,189.983459 
	C320.749481,187.826950 321.398041,185.611893 322.334198,183.525955 
	C324.359894,179.012375 328.573059,176.507202 332.079803,178.137466 
	C336.828125,180.344940 335.047028,184.274765 333.510010,188.328674 
	C328.348297,191.575729 323.664215,194.357361 319.035889,196.790283 
	C319.096710,195.971817 319.101807,195.502060 319.322205,194.833740 
	C319.553894,194.074509 319.570251,193.513809 319.737762,192.601593 
	C319.916138,191.494537 319.943359,190.738998 319.970581,189.983459 
z"/>
<path fill="#D3763C" opacity="1.000000" stroke="none" 
	d="
M230.038177,216.037613 
	C231.373581,211.729416 232.236221,207.203873 234.297333,203.313232 
	C239.094452,194.258072 246.391464,188.758865 257.167511,188.014374 
	C261.987671,187.681381 266.686584,185.593002 272.025452,184.389099 
	C271.336792,185.711288 270.269928,187.500656 268.747742,188.067627 
	C265.280243,189.359146 261.589355,190.051071 257.616150,190.986206 
	C256.496185,190.991119 255.749313,190.996475 254.597656,190.997711 
	C251.431717,191.859238 248.143692,192.051086 246.010056,193.719330 
	C240.071442,198.362595 235.896866,204.451843 233.500977,211.738968 
	C232.949112,213.417435 231.363358,214.755966 230.253357,216.250946 
	C230.253357,216.250931 230.109909,216.108719 230.038177,216.037613 
z"/>
<path fill="#280E07" opacity="1.000000" stroke="none" 
	d="
M272.888306,324.260071 
	C276.893921,323.673889 280.927979,323.238434 284.973724,323.031952 
	C288.107819,322.871948 291.260864,322.894592 294.397583,323.025360 
	C297.765930,323.165771 300.166656,322.765381 300.104523,318.364899 
	C300.046204,314.234924 297.780334,313.909393 294.628479,313.964600 
	C289.007324,314.063019 283.381592,314.064240 277.761292,313.943390 
	C276.227051,313.910431 274.705292,313.296692 273.540710,312.509460 
	C283.234955,312.092712 292.566315,312.115967 301.897644,312.139221 
	C301.897644,312.139221 301.972656,312.020599 301.967346,312.516785 
	C301.879425,316.959045 301.796814,320.905121 301.714233,324.851196 
	C294.797638,324.911163 287.881012,324.971130 280.081360,324.992371 
	C277.136047,324.970642 275.073792,324.987610 273.011505,325.004578 
	C272.981567,324.839508 272.951660,324.674469 272.888306,324.260071 
z"/>
<path fill="#C4713F" opacity="1.000000" stroke="none" 
	d="
M201.619202,292.819824 
	C200.916733,293.150574 200.214264,293.481323 198.844666,293.893494 
	C194.356857,294.259949 190.936554,293.492828 188.984207,289.821350 
	C186.819702,285.750977 188.563828,282.286987 191.029114,279.022949 
	C191.029114,279.022949 190.999390,279.000000 191.409454,278.982788 
	C199.913345,276.576324 205.023849,279.815186 204.129700,287.001953 
	C203.879349,289.014221 202.487457,290.884430 201.619202,292.819824 
M191.009903,286.248535 
	C193.041306,287.826752 194.921432,289.740906 197.201218,290.767456 
	C197.840576,291.055359 200.340988,288.950409 200.785233,287.559082 
	C201.637268,284.890747 201.108810,281.942535 197.802505,281.187317 
	C194.422745,280.415375 191.365662,281.015900 191.009903,286.248535 
z"/>
<path fill="#C4713F" opacity="1.000000" stroke="none" 
	d="
M305.098663,210.877197 
	C302.308075,207.375580 299.517517,203.873978 296.483185,200.155609 
	C296.518768,198.640198 296.798096,197.341522 297.585571,195.663055 
	C304.365875,194.045776 305.858612,199.044998 308.109741,203.428711 
	C308.010223,206.185211 307.956909,208.507339 307.556885,210.912109 
	C306.506348,210.955566 305.802521,210.916382 305.098663,210.877197 
z"/>
<path fill="#D8783E" opacity="1.000000" stroke="none" 
	d="
M320.432007,267.797913 
	C320.544464,266.962524 321.116913,266.233521 322.222717,265.257446 
	C323.503082,265.005280 324.250031,265.000214 325.455383,265.000732 
	C329.276703,265.002594 332.639709,264.998840 336.446533,264.999268 
	C339.259460,265.002289 341.628510,265.001129 344.441559,265.004578 
	C349.375885,265.784912 353.306519,264.310516 357.137878,262.400269 
	C357.294495,264.222137 357.339722,265.632874 357.384918,267.043610 
	C354.303528,267.335419 351.224670,267.841766 348.140228,267.878571 
	C339.058685,267.987000 329.974884,267.909210 320.432007,267.797913 
z"/>
<path fill="#280E07" opacity="1.000000" stroke="none" 
	d="
M307.903595,210.829483 
	C307.956909,208.507339 308.010223,206.185211 308.389709,203.419006 
	C309.140442,202.658081 309.565033,202.341232 310.275574,201.841248 
	C312.511963,197.755692 314.462463,193.853271 316.412933,189.950867 
	C317.361755,189.955566 318.310608,189.960281 319.614990,189.974213 
	C319.943359,190.738998 319.916138,191.494537 319.478302,192.663971 
	C319.080750,193.729340 319.093842,194.380814 319.106934,195.032303 
	C319.101807,195.502060 319.096710,195.971817 319.026245,197.193939 
	C319.013977,198.758362 319.067078,199.570435 318.881165,200.583130 
	C316.535675,203.108597 314.509308,205.513290 312.296539,207.732071 
	C310.634125,209.399017 310.538910,210.458466 313.009399,211.122284 
	C311.289764,211.759476 309.570099,212.396667 307.560913,212.767944 
	C307.482086,211.944504 307.692841,211.386993 307.903595,210.829483 
z"/>
<path fill="#41180C" opacity="1.000000" stroke="none" 
	d="
M319.120178,200.382507 
	C319.067078,199.570435 319.013977,198.758362 318.970520,197.542648 
	C323.664215,194.357361 328.348297,191.575729 333.358337,188.683624 
	C335.085785,190.012161 336.487244,191.451202 337.546997,193.351044 
	C334.245850,193.960617 331.286407,194.109390 328.326935,194.258163 
	C328.270477,194.717102 328.213989,195.176056 328.157532,195.634995 
	C329.732208,196.449112 331.306915,197.263229 332.881592,198.077362 
	C331.469635,198.077347 330.057709,198.077347 328.711945,198.077347 
	C330.298401,200.297058 331.663757,202.207367 332.610565,204.596832 
	C330.473083,205.209213 328.754120,205.342438 326.973694,205.051697 
	C326.831360,204.356171 326.750488,204.084641 326.767517,203.430573 
	C325.864716,197.565399 321.911560,200.661835 319.120178,200.382507 
z"/>
<path fill="#280E07" opacity="1.000000" stroke="none" 
	d="
M261.640259,317.996094 
	C261.283203,302.346222 261.210724,286.628387 261.145325,270.202667 
	C261.447144,269.032349 261.741882,268.569916 262.480591,268.148560 
	C265.291107,268.298920 267.657623,268.408173 270.024139,268.517426 
	C262.984924,269.831970 262.984802,269.831970 262.982758,277.600006 
	C262.982361,279.090576 262.983429,280.581116 262.984467,283.004028 
	C262.987061,291.958344 262.989014,299.980316 262.990967,308.002319 
	C262.988068,310.371552 262.985168,312.740753 262.985046,315.553772 
	C262.633484,316.641083 262.279144,317.284637 261.640259,317.996094 
z"/>
<path fill="#280E07" opacity="1.000000" stroke="none" 
	d="
M350.099030,215.209473 
	C345.767975,216.738708 341.026306,219.210861 336.199554,219.389908 
	C325.404358,219.790283 317.672333,224.469849 311.831482,233.559937 
	C310.870331,227.767197 315.434631,224.184036 319.268158,222.441772 
	C325.688171,219.524017 333.062042,218.702850 340.037170,217.010315 
	C341.891327,216.560379 343.755157,216.150436 345.812531,215.385315 
	C347.223602,215.069565 348.436676,215.090652 350.099030,215.209473 
z"/>
<path fill="#C4713F" opacity="1.000000" stroke="none" 
	d="
M316.207611,189.638306 
	C314.462463,193.853271 312.511963,197.755692 310.161987,201.472717 
	C309.087799,197.815842 308.413116,194.344360 307.738434,190.872879 
	C310.760986,186.104691 312.257751,185.824463 316.207611,189.638306 
z"/>
<path fill="#280E07" opacity="1.000000" stroke="none" 
	d="
M357.742310,266.910278 
	C357.339722,265.632874 357.294495,264.222137 357.224243,261.939423 
	C357.162872,249.726166 357.126587,238.384903 357.296448,227.040588 
	C357.502594,227.037567 357.910248,226.976166 357.910248,226.976166 
	C358.262573,227.858231 358.916412,228.738510 358.921631,229.622635 
	C358.990631,241.268860 358.984070,252.915726 358.931488,264.562103 
	C358.928162,265.301636 358.389374,266.038696 357.742310,266.910278 
z"/>
<path fill="#280E07" opacity="1.000000" stroke="none" 
	d="
M172.342316,292.006256 
	C177.413071,286.770630 179.828339,280.402283 179.054871,272.903748 
	C178.626755,268.753601 180.630554,267.621735 184.718658,268.467865 
	C183.065628,274.303558 181.357330,280.128418 178.808609,285.558868 
	C177.612991,288.106323 174.797501,289.893494 172.342316,292.006256 
z"/>
<path fill="#220906" opacity="1.000000" stroke="none" 
	d="
M202.024078,292.853821 
	C202.487457,290.884430 203.879349,289.014221 204.129700,287.001953 
	C205.023849,279.815186 199.913345,276.576324 191.419861,278.998535 
	C192.108856,274.717926 195.785385,274.122284 198.767258,275.255615 
	C201.520020,276.301849 205.115021,278.978333 205.535553,281.419708 
	C206.177719,285.147736 208.569809,290.544281 202.024078,292.853821 
z"/>
<path fill="#F58133" opacity="1.000000" stroke="none" 
	d="
M257.989258,190.986633 
	C261.589355,190.051071 265.280243,189.359146 268.747742,188.067627 
	C270.269928,187.500656 271.336792,185.711288 272.374969,184.270233 
	C272.276154,183.608765 272.412750,183.154022 272.919067,182.387833 
	C273.524811,182.041672 273.761902,182.016815 274.368164,181.928589 
	C275.159149,180.236298 275.582001,178.617264 276.344421,177.048676 
	C277.255371,178.449265 278.582336,180.007294 278.277252,181.116379 
	C276.064514,189.160263 265.974609,193.944672 257.989258,190.986633 
z"/>
<path fill="#D3763C" opacity="1.000000" stroke="none" 
	d="
M276.167664,335.276245 
	C277.958282,336.037720 279.736572,337.183411 281.569702,338.233215 
	C290.742004,343.485992 300.087891,343.413208 309.955811,339.117493 
	C304.870148,344.411072 297.900665,345.173004 291.301056,343.437714 
	C285.945648,342.029541 281.197876,338.310425 276.167664,335.276245 
z"/>
<path fill="#D8783E" opacity="1.000000" stroke="none" 
	d="
M276.004883,176.998245 
	C275.582001,178.617264 275.159149,180.236298 274.348389,181.633408 
	C273.649506,180.944244 273.338501,180.477005 273.027496,180.009766 
	C273.081390,174.625229 273.135315,169.240707 273.689575,163.301376 
	C274.368805,161.933487 274.547699,161.120377 274.726562,160.307281 
	C274.726562,160.307281 274.624329,160.193512 274.955444,160.027832 
	C275.862061,159.575638 276.437592,159.289124 277.010193,159.434326 
	C276.671478,164.244217 276.335724,168.622406 275.996643,173.400391 
	C275.997192,174.866180 276.001038,175.932220 276.004883,176.998245 
z"/>
<path fill="#C4713F" opacity="1.000000" stroke="none" 
	d="
M327.035156,205.475662 
	C328.754120,205.342438 330.473083,205.209213 332.617188,204.984818 
	C334.866638,206.399368 336.690979,207.905075 338.660217,209.709229 
	C338.805084,210.007660 338.659149,210.253906 338.384888,210.596085 
	C336.718445,211.420227 335.326263,211.902191 333.934052,212.384155 
	C332.577271,211.579147 331.220520,210.774155 329.301208,209.662354 
	C327.834442,209.215179 326.930206,209.074783 326.025940,208.934372 
	C326.025940,208.934372 326.173462,208.792694 326.179688,208.414139 
	C326.468964,207.182281 326.752075,206.328979 327.035156,205.475662 
z"/>
<path fill="#41180C" opacity="1.000000" stroke="none" 
	d="
M307.447174,190.873779 
	C308.413116,194.344360 309.087799,197.815842 309.876038,201.655853 
	C309.565033,202.341232 309.140442,202.658081 308.435883,202.984650 
	C305.858612,199.044998 304.365875,194.045776 297.727783,195.362274 
	C297.596741,193.824173 297.831635,192.207047 298.495667,190.298798 
	C300.911652,191.367844 302.898499,192.727982 305.352448,194.407883 
	C305.652649,192.808975 305.823822,191.897247 305.994995,190.985504 
	C306.381958,190.948547 306.768951,190.911606 307.447174,190.873779 
z"/>
<path fill="#80462C" opacity="1.000000" stroke="none" 
	d="
M288.327576,153.738800 
	C286.833954,152.742294 285.576080,151.472580 283.980072,150.248932 
	C281.643616,149.010864 279.645294,147.726746 276.860840,145.937454 
	C277.260223,145.542374 278.393005,143.554169 279.916016,143.187683 
	C281.151672,142.890320 283.727325,144.207550 284.180420,145.392883 
	C285.300598,148.323227 290.859497,148.838562 288.327576,153.738800 
z"/>
<path fill="#220906" opacity="1.000000" stroke="none" 
	d="
M190.647339,279.005493 
	C188.563828,282.286987 186.819702,285.750977 188.984207,289.821350 
	C190.936554,293.492828 194.356857,294.259949 198.590454,294.036316 
	C195.513290,296.198486 188.267883,294.749878 186.439606,291.585815 
	C184.379242,288.020050 186.471207,281.131775 190.647339,279.005493 
z"/>
<path fill="#C4713F" opacity="1.000000" stroke="none" 
	d="
M332.913513,198.060394 
	C331.306915,197.263229 329.732208,196.449112 328.157532,195.634995 
	C328.213989,195.176056 328.270477,194.717102 328.326935,194.258163 
	C331.286407,194.109390 334.245850,193.960617 337.634338,193.672150 
	C340.908569,195.567764 341.622833,197.504623 337.099701,199.144653 
	C335.932800,199.022614 335.466125,198.987686 334.999481,198.952759 
	C334.999481,198.952759 334.696075,198.774612 334.340698,198.551270 
	C333.638092,198.257019 333.290894,198.186127 332.943665,198.115234 
	C332.943665,198.115234 332.945465,198.043442 332.913513,198.060394 
z"/>
<path fill="#80462C" opacity="1.000000" stroke="none" 
	d="
M305.755981,190.763275 
	C305.823822,191.897247 305.652649,192.808975 305.352448,194.407883 
	C302.898499,192.727982 300.911652,191.367844 298.612335,189.898346 
	C298.860626,188.255417 299.421448,186.721863 299.982239,185.188309 
	C301.046417,185.866562 302.110596,186.544815 302.971069,187.671326 
	C302.846405,188.068253 302.925446,188.016907 303.004456,187.965546 
	C303.841949,188.824036 304.679443,189.682541 305.755981,190.763275 
z"/>
<path fill="#D3763C" opacity="1.000000" stroke="none" 
	d="
M272.981354,325.389526 
	C275.073792,324.987610 277.136047,324.970642 279.624329,325.084839 
	C278.207794,326.700134 276.365326,328.184235 274.227234,329.860657 
	C273.604828,328.626770 273.278015,327.200653 272.981354,325.389526 
z"/>
<path fill="#D3763C" opacity="1.000000" stroke="none" 
	d="
M277.013153,159.002625 
	C276.437592,159.289124 275.862061,159.575638 274.973267,159.953445 
	C276.564575,157.772003 278.469177,155.499252 280.710297,153.189468 
	C280.777161,153.911469 280.507446,154.670486 279.841156,155.848236 
	C278.634094,157.178848 277.823608,158.090744 277.013153,159.002625 
z"/>
<path fill="#C4713F" opacity="1.000000" stroke="none" 
	d="
M318.349976,284.719879 
	C314.676147,283.818298 315.238617,282.009949 317.835083,279.928040 
	C318.284241,281.347473 318.416504,282.828918 318.349976,284.719879 
z"/>
<path fill="#280E07" opacity="1.000000" stroke="none" 
	d="
M319.051666,321.847961 
	C318.599976,320.222534 318.469788,318.372375 318.533813,316.226196 
	C318.943085,317.827881 319.158112,319.725586 319.051666,321.847961 
z"/>
<path fill="#280E07" opacity="1.000000" stroke="none" 
	d="
M315.443054,334.972656 
	C315.820923,333.388977 316.549377,331.749817 317.604614,329.990662 
	C317.218842,331.552826 316.506226,333.235046 315.443054,334.972656 
z"/>
<path fill="#280E07" opacity="1.000000" stroke="none" 
	d="
M357.077942,219.996841 
	C357.292877,219.783676 357.456940,219.536743 357.741272,219.113190 
	C358.099213,220.504822 358.286041,222.039307 357.986023,223.768265 
	C357.499115,223.962753 357.085327,223.958893 357.163757,223.567444 
	C357.187439,222.116272 357.132690,221.056564 357.077942,219.996841 
z"/>
<path fill="#280E07" opacity="1.000000" stroke="none" 
	d="
M358.158081,212.839890 
	C357.136688,212.687927 356.378815,212.353439 355.301727,211.985107 
	C355.698700,211.354584 356.414917,210.757919 357.131134,210.161255 
	C357.561310,210.993286 357.991455,211.825333 358.158081,212.839890 
z"/>
<path fill="#280E07" opacity="1.000000" stroke="none" 
	d="
M165.195709,295.267639 
	C166.448273,294.398987 167.899796,293.779510 169.698883,293.179108 
	C168.495865,293.971039 166.945267,294.743927 165.195709,295.267639 
z"/>
<path fill="#D8783E" opacity="1.000000" stroke="none" 
	d="
M357.085327,223.958893 
	C357.085327,223.958893 357.499115,223.962753 357.703705,223.993469 
	C357.865936,224.764053 357.823578,225.503922 357.845734,226.609985 
	C357.910248,226.976166 357.502594,227.037567 357.023254,226.861481 
	C356.724365,225.776550 356.904846,224.867722 357.085327,223.958893 
z"/>
<path fill="#D3763C" opacity="1.000000" stroke="none" 
	d="
M272.870544,180.245331 
	C273.338501,180.477005 273.649506,180.944244 273.980255,181.706665 
	C273.761902,182.016815 273.524811,182.041672 273.110443,182.085938 
	C272.859253,181.557281 272.786407,181.019089 272.870544,180.245331 
z"/>
<path fill="#D3763C" opacity="1.000000" stroke="none" 
	d="
M274.445068,160.472488 
	C274.547699,161.120377 274.368805,161.933487 273.887756,162.872314 
	C273.778229,162.211258 273.970917,161.424484 274.445068,160.472488 
z"/>
<path fill="#280E07" opacity="1.000000" stroke="none" 
	d="
M160.995575,295.561432 
	C161.418396,295.203156 161.892410,295.110809 162.710754,295.150848 
	C162.385635,295.464600 161.716187,295.645966 160.995575,295.561432 
z"/>
<path fill="#41180C" opacity="1.000000" stroke="none" 
	d="
M335.105011,199.193878 
	C335.466125,198.987686 335.932800,199.022614 336.709656,199.229187 
	C336.416748,199.412231 335.813629,199.423615 335.105011,199.193878 
z"/>
<path fill="#280E07" opacity="1.000000" stroke="none" 
	d="
M354.720612,212.055908 
	C354.783936,212.258148 354.621307,212.531647 354.211548,212.845703 
	C354.031158,212.556381 354.207916,212.303345 354.720612,212.055908 
z"/>
<path fill="#41180C" opacity="1.000000" stroke="none" 
	d="
M333.109985,198.341492 
	C333.290894,198.186127 333.638092,198.257019 334.166199,198.528870 
	C333.990143,198.675797 333.633209,198.621765 333.109985,198.341492 
z"/>
<path fill="#C4713F" opacity="1.000000" stroke="none" 
	d="
M318.881134,200.583130 
	C321.911560,200.661835 325.864716,197.565399 326.475250,203.526001 
	C324.694397,205.177155 323.303711,206.350311 321.556335,207.632996 
	C319.740204,208.463684 318.280731,209.184891 316.821228,209.906097 
	C316.821228,209.906097 316.397583,209.975067 315.884644,209.993591 
	C314.855804,210.304459 314.339905,210.596817 313.823975,210.889191 
	C313.823975,210.889175 313.403656,210.959610 313.206543,211.040955 
	C310.538910,210.458466 310.634125,209.399017 312.296539,207.732071 
	C314.509308,205.513290 316.535675,203.108597 318.881134,200.583130 
z"/>
<path fill="#280E07" opacity="1.000000" stroke="none" 
	d="
M308.507660,242.033051 
	C308.782379,243.971680 308.716064,245.973602 308.419739,248.481888 
	C307.781189,249.241394 307.372620,249.494522 306.964050,249.747650 
	C302.012573,249.559982 297.062347,249.304779 292.109100,249.212616 
	C289.559998,249.165161 288.359467,248.223480 289.093506,245.265991 
	C293.310059,245.638550 297.438721,247.027786 301.449005,246.744156 
	C303.786102,246.578888 305.933777,243.735031 308.507660,242.033051 
z"/>
<path fill="#80462C" opacity="1.000000" stroke="none" 
	d="
M321.912994,207.523483 
	C323.303711,206.350311 324.694397,205.177155 326.377380,203.908554 
	C326.750488,204.084641 326.831360,204.356171 326.973694,205.051697 
	C326.752075,206.328979 326.468964,207.182281 326.192810,208.312714 
	C325.723328,208.703491 325.246887,208.817123 324.201355,208.686035 
	C323.059143,208.135376 322.486053,207.829422 321.912994,207.523483 
z"/>
<path fill="#280E07" opacity="1.000000" stroke="none" 
	d="
M321.556335,207.632996 
	C322.486053,207.829422 323.059143,208.135376 323.831116,208.698730 
	C321.915588,209.294327 319.801086,209.632507 317.253906,209.938385 
	C318.280731,209.184891 319.740204,208.463684 321.556335,207.632996 
z"/>
<path fill="#280E07" opacity="1.000000" stroke="none" 
	d="
M334.030701,212.697586 
	C335.326263,211.902191 336.718445,211.420227 338.426392,210.733063 
	C338.498444,213.761475 336.993561,214.651230 334.030701,212.697586 
z"/>
<path fill="#41180C" opacity="1.000000" stroke="none" 
	d="
M307.556915,210.912109 
	C307.692841,211.386993 307.482086,211.944504 307.183289,212.790344 
	C306.402588,212.546753 305.709961,212.014816 305.057983,211.180054 
	C305.802521,210.916382 306.506348,210.955566 307.556915,210.912109 
z"/>
<path fill="#280E07" opacity="1.000000" stroke="none" 
	d="
M309.541626,238.003403 
	C309.802338,238.542587 309.766052,239.121033 309.497681,239.889526 
	C309.258606,239.400620 309.251587,238.721634 309.541626,238.003403 
z"/>
<path fill="#280E07" opacity="1.000000" stroke="none" 
	d="
M289.466400,233.995621 
	C289.105408,233.573410 289.022858,233.107117 289.061707,232.301178 
	C289.370361,232.624878 289.557587,233.288208 289.466400,233.995621 
z"/>
<path fill="#280E07" opacity="1.000000" stroke="none" 
	d="
M326.223846,209.229584 
	C326.930206,209.074783 327.834442,209.215179 328.963013,209.627365 
	C328.265442,209.774353 327.343597,209.649567 326.223846,209.229584 
z"/>
<path fill="#280E07" opacity="1.000000" stroke="none" 
	d="
M314.131622,210.913528 
	C314.339905,210.596817 314.855804,210.304459 315.684875,210.072098 
	C315.478485,210.400696 314.958862,210.669281 314.131622,210.913528 
z"/>
<path fill="#F68131" opacity="1.000000" stroke="none" 
	d="
M227.004852,307.544586 
	C227.027496,317.588226 227.460800,327.212128 226.953171,336.786163 
	C226.259903,349.861359 212.132019,362.599152 199.040009,362.239838 
	C186.794662,361.903809 175.587784,356.781525 171.153687,347.395874 
	C168.603073,341.997009 169.091507,336.469116 170.281982,330.932648 
	C170.455826,330.124176 171.762009,329.559174 172.837982,328.627045 
	C174.321594,333.055573 175.276566,337.047150 176.964325,340.700165 
	C180.213928,347.733704 185.816162,351.839905 193.729111,351.934448 
	C201.927551,352.032410 207.968658,348.035217 211.880753,340.992218 
	C212.783173,339.367615 212.846436,337.177094 212.953613,335.228180 
	C213.363159,327.780487 213.492722,320.315216 214.019226,312.877167 
	C214.253250,309.570984 221.165665,303.836731 224.306396,304.274109 
	C225.314743,304.414581 226.105728,306.115601 227.004852,307.544586 
z"/>
<path fill="#F8802F" opacity="1.000000" stroke="none" 
	d="
M276.344421,177.048676 
	C276.001038,175.932220 275.997192,174.866180 276.387756,173.313019 
	C277.189911,170.664047 277.438141,168.454269 278.067902,166.359207 
	C278.420746,165.185272 279.405426,164.201263 280.105408,163.131683 
	C280.748688,164.099075 281.866913,165.022842 281.960449,166.040756 
	C282.746613,174.596039 283.739227,183.160553 283.913330,191.737640 
	C284.222168,206.955780 283.999512,222.184662 284.000458,237.409058 
	C284.000610,240.071854 283.869537,242.743515 284.041290,245.395401 
	C284.316833,249.650482 286.023499,253.607895 290.252502,254.673111 
	C294.761230,255.808762 299.602325,255.740189 304.309265,255.944672 
	C310.329559,256.206177 315.122925,248.937546 312.992554,242.994507 
	C312.994263,242.552063 312.995972,242.109634 313.378235,241.292633 
	C317.291809,239.356155 319.066162,240.267014 319.037689,244.369461 
	C319.012451,248.002411 319.801086,251.956055 324.010254,252.329041 
	C329.285980,252.796570 334.760773,252.570251 339.964355,251.624161 
	C342.455719,251.171188 345.602661,248.840469 342.979370,244.538177 
	C342.980133,241.396530 342.979553,238.703369 343.250061,235.791534 
	C342.949127,233.789108 342.191101,232.039078 341.859589,230.211639 
	C341.556000,228.538315 341.028656,225.776184 341.797577,225.252548 
	C343.977081,223.768341 346.739960,222.642105 349.334961,222.499283 
	C350.455627,222.437622 352.480713,224.999573 352.785736,226.616653 
	C353.577728,230.814957 353.819183,235.144623 353.955780,239.432190 
	C354.133026,244.995804 353.943909,250.570007 354.009735,256.138519 
	C354.070251,261.256042 352.828552,262.487152 347.360626,263.080811 
	C346.184021,263.208618 345.115723,264.334076 343.997559,265.000000 
	C341.628510,265.001129 339.259460,265.002289 336.358063,264.608063 
	C332.090820,262.739166 328.359100,261.309296 324.997009,264.995117 
	C324.250031,265.000214 323.503082,265.005280 322.382935,265.011322 
	C317.708557,263.945923 314.216888,265.971039 314.086700,270.149933 
	C313.835571,278.210663 314.066376,286.285187 313.944244,294.351685 
	C313.881775,298.478821 313.336304,302.599152 313.288239,306.725830 
	C313.242249,310.676270 313.093597,314.716187 313.801025,318.567810 
	C315.932617,330.173096 305.236145,340.724396 293.637665,338.445404 
	C289.227905,337.578918 284.931793,337.118927 282.682861,331.368652 
	C285.324371,331.224091 287.376099,331.160400 289.418793,330.989319 
	C293.036682,330.686340 296.728760,330.678253 300.246918,329.900452 
	C307.103485,328.384552 309.695801,323.649017 308.996613,314.885010 
	C308.738464,311.649628 302.856750,307.240509 298.232483,307.037689 
	C294.578186,306.877380 290.905151,306.862976 287.251251,307.025970 
	C276.170807,307.520294 278.604736,304.914154 277.653259,295.577576 
	C277.434296,293.428864 277.056396,291.296326 276.370056,288.744751 
	C275.994720,287.890228 276.001038,287.447235 276.301025,286.972168 
	C276.720856,286.288452 276.846985,285.636841 276.976074,284.648346 
	C277.306976,283.534821 277.634918,282.758148 278.318573,281.953552 
	C281.106567,277.946381 283.813629,274.094879 285.767151,269.893036 
	C286.224091,268.910278 284.513092,266.032593 283.119751,265.272156 
	C280.665619,263.932739 277.695282,263.521088 274.906281,262.870117 
	C274.775787,262.839661 274.307373,264.256958 273.536865,265.005585 
	C269.403656,265.017029 265.729950,265.022888 261.689850,265.054504 
	C255.249283,268.101929 256.473175,274.201904 256.190521,279.068848 
	C255.574951,289.668945 256.001556,300.329498 255.999496,310.965332 
	C255.998291,317.114136 256.104797,323.266968 255.888092,329.408264 
	C255.846924,330.575378 254.503387,332.644104 253.784073,332.634003 
	C252.461838,332.615448 250.771576,331.645569 249.954987,330.540131 
	C249.165146,329.470978 248.993683,327.719116 249.056335,326.289276 
	C249.229553,322.336853 249.918427,318.398254 249.953903,314.450165 
	C250.074081,301.077301 249.912674,287.701782 250.048508,274.329224 
	C250.094406,269.809204 247.917923,266.526184 244.473434,264.448578 
	C241.574921,262.700287 237.913696,261.050110 234.997025,265.006104 
	C233.609863,265.008331 232.222702,265.010559 230.358368,264.660828 
	C228.191147,262.322632 226.838562,262.230011 225.996338,265.001221 
	C223.627930,265.004608 221.259537,265.007965 218.360611,264.617737 
	C214.403763,262.606995 211.005341,261.342377 207.996704,265.002441 
	C203.309586,265.005005 198.622482,265.007568 193.378677,264.609619 
	C188.346436,263.925812 183.856201,263.282043 179.399567,263.463470 
	C175.175598,263.635437 173.820465,267.236511 173.108414,270.738373 
	C172.486496,273.796997 172.287262,276.949371 172.020096,280.070526 
	C171.568054,285.351929 168.681213,288.236359 163.349548,289.058258 
	C161.503983,289.342773 159.770569,290.354675 157.985916,291.034332 
	C156.225266,290.402954 154.464600,289.771576 152.311279,288.701447 
	C152.279694,285.506012 152.640732,282.749359 153.001770,279.992676 
	C154.064880,279.988312 155.127991,279.983978 156.843903,280.264313 
	C161.357193,282.009369 165.416748,280.415375 166.231293,277.410980 
	C167.056992,274.365356 164.868378,270.502472 164.000000,266.997559 
	C163.997482,266.248779 163.994965,265.499969 164.392822,264.285980 
	C165.195450,262.183838 165.821808,260.565399 165.958633,258.906555 
	C166.396484,253.598434 166.652939,248.275314 166.979416,242.957993 
	C167.076920,242.640579 167.260056,242.384384 168.152405,242.092834 
	C171.663940,241.777496 172.676331,243.090347 173.126160,245.996338 
	C174.236435,253.169006 178.983307,256.978210 185.281021,255.863342 
	C187.950958,255.390686 190.449219,253.948456 193.025513,252.946899 
	C193.762527,252.949829 194.499557,252.952774 195.846207,253.237671 
	C199.260895,254.291580 201.846420,254.497742 202.988785,250.984680 
	C202.988785,250.984680 203.000000,251.000000 203.371109,250.955200 
	C204.827377,249.274307 206.557175,247.751495 206.868530,245.979462 
	C207.602097,241.804398 207.673920,237.511581 207.986954,233.264435 
	C208.576019,225.272079 210.568253,223.239166 218.689636,221.937881 
	C219.867630,221.749115 220.901947,220.663788 222.002731,219.993347 
	C222.443649,219.988235 222.884567,219.983124 223.929718,220.270966 
	C231.876587,221.603104 233.634674,220.878632 234.784180,216.227173 
	C237.439484,205.482529 242.471420,196.696747 253.687576,192.851593 
	C254.268921,192.652298 254.570572,191.637146 255.002441,191.001831 
	C255.749313,190.996475 256.496185,190.991119 257.616150,190.986206 
	C265.974609,193.944672 276.064514,189.160263 278.277252,181.116379 
	C278.582336,180.007294 277.255371,178.449265 276.344421,177.048676 
M261.470673,235.024277 
	C261.325470,235.681854 261.180267,236.339447 261.086151,237.790771 
	C261.035675,238.848480 260.985199,239.906204 260.264740,241.091721 
	C260.490662,242.406647 260.716614,243.721573 261.050079,245.685471 
	C261.029449,246.122620 261.008789,246.559784 260.433228,247.427292 
	C261.158661,248.582855 261.820068,250.674408 262.620819,250.729187 
	C265.800018,250.946671 269.640564,253.422119 272.077393,248.471497 
	C272.077393,248.471497 272.323303,248.081116 273.035187,247.810318 
	C273.162109,244.161545 273.585846,240.486099 273.261475,236.877899 
	C273.141327,235.541611 271.180054,233.251984 270.203827,233.325546 
	C267.495087,233.529709 263.939301,230.947479 262.002625,235.000000 
	C262.002625,235.000000 262.076447,235.087646 261.470673,235.024277 
M246.042679,216.847000 
	C250.694138,221.789352 260.221069,221.382950 263.836823,215.891815 
	C267.298553,211.372314 266.673492,206.360001 264.526794,201.829727 
	C263.667633,200.016556 260.360901,198.195374 258.297791,198.332123 
	C251.159470,198.805328 244.407120,205.242462 243.309631,212.171738 
	C243.125824,213.332153 244.951492,214.810837 246.042679,216.847000 
M230.583374,234.991028 
	C220.804626,235.201416 221.378174,233.245285 221.394196,244.508636 
	C221.394669,244.841797 221.423813,245.175888 221.407379,245.507950 
	C221.275742,248.168411 222.414886,249.566376 225.200424,249.540985 
	C230.531128,249.492416 235.870758,249.672440 241.187531,249.393112 
	C242.456970,249.326431 244.414017,248.050980 244.740631,246.943802 
	C245.838928,243.220734 246.344254,239.322754 247.172195,234.990845 
	C241.838745,234.990845 236.700058,234.990845 230.583374,234.991028 
M285.691803,284.691132 
	C284.509857,289.670502 283.383423,295.456635 288.819885,297.872894 
	C292.717346,299.605164 298.307129,299.763977 302.382019,298.382904 
	C310.105408,295.765137 310.250732,282.496002 305.464661,277.059448 
	C301.025787,272.017212 294.916229,272.371735 290.726959,277.572906 
	C289.067902,279.632690 287.582489,281.832336 285.691803,284.691132 
z"/>
<path fill="#D3763C" opacity="1.000000" stroke="none" 
	d="
M276.007324,287.004272 
	C276.001038,287.447235 275.994720,287.890228 275.989594,288.665405 
	C275.733063,294.393188 274.905396,299.840393 275.387482,305.169067 
	C275.818481,309.932617 280.583557,309.609344 284.013519,309.907349 
	C288.451874,310.292877 292.952667,309.899963 297.418030,310.068176 
	C298.900391,310.123962 300.356445,310.877350 301.861084,311.725525 
	C292.566315,312.115967 283.234955,312.092712 273.434875,312.124329 
	C272.692963,311.643036 272.419769,311.106903 272.144409,309.837585 
	C272.292145,295.114136 271.082428,280.836884 281.766418,269.069611 
	C281.381897,268.783752 280.997345,268.497925 280.612823,268.212067 
	C278.379944,268.354736 276.147095,268.497375 273.914215,268.640045 
	C272.876190,268.548706 271.838165,268.457336 270.412140,268.441711 
	C267.657623,268.408173 265.291107,268.298920 262.461365,267.763062 
	C262.017548,266.567230 262.036896,265.798004 262.056244,265.028748 
	C265.729950,265.022888 269.403656,265.017029 273.956116,265.012573 
	C275.661865,265.017090 276.495392,264.953674 277.314789,265.033936 
	C283.652618,265.654755 285.030853,268.765503 281.642670,274.052521 
	C280.084930,276.483307 279.169525,279.325745 277.962830,281.981476 
	C277.634918,282.758148 277.306976,283.534821 276.734070,284.820374 
	C276.328491,285.887604 276.167908,286.445953 276.007324,287.004272 
z"/>
<path fill="#D3763C" opacity="1.000000" stroke="none" 
	d="
M302.101074,324.879517 
	C301.796814,320.905121 301.879425,316.959045 301.913391,312.561646 
	C307.115326,315.279297 307.411133,321.354187 302.101074,324.879517 
z"/>
<path fill="#C4713F" opacity="1.000000" stroke="none" 
	d="
M316.454742,274.536285 
	C316.415924,274.475067 316.493561,274.597504 316.454742,274.536285 
z"/>
<path fill="#280E07" opacity="1.000000" stroke="none" 
	d="
M274.027893,268.978943 
	C276.147095,268.497375 278.379944,268.354736 280.612823,268.212067 
	C280.997345,268.497925 281.381897,268.783752 281.766418,269.069611 
	C271.082428,280.836884 272.292145,295.114136 272.024170,309.561035 
	C271.276550,308.703735 270.119720,307.396881 270.102081,306.074860 
	C269.976898,296.688141 269.984222,287.355591 273.778412,278.384186 
	C274.881012,275.777161 274.073486,272.362335 274.027893,268.978943 
z"/>
<path fill="#000000" opacity="1.000000" stroke="none" 
	d="
M263.353210,307.942261 
	C262.989014,299.980316 262.987061,291.958344 262.988861,283.467560 
	C265.851410,282.659668 267.217346,283.658691 267.046783,286.801758 
	C266.763367,292.023987 267.029419,297.285553 266.545654,302.482330 
	C266.371429,304.353882 264.702362,306.086273 263.353210,307.942261 
z"/>
<path fill="#F58133" opacity="1.000000" stroke="none" 
	d="
M261.689850,265.054504 
	C262.036896,265.798004 262.017548,266.567230 262.017395,267.721985 
	C261.741882,268.569916 261.447144,269.032349 261.033264,269.744812 
	C260.281281,271.142853 259.149658,272.267212 259.094025,273.442474 
	C258.624634,283.365967 258.116394,293.298187 258.092010,303.228973 
	C258.071320,311.662476 258.640869,320.099152 259.021576,328.531158 
	C259.201996,332.527191 257.972168,335.533173 253.589050,335.929535 
	C249.510757,336.298340 247.009293,333.364838 247.003342,328.555298 
	C246.980911,310.439026 247.021469,292.322601 246.938736,274.206726 
	C246.931076,272.527985 246.217804,270.852509 245.437912,269.094116 
	C244.783524,268.832214 244.538528,268.633087 244.139648,268.249695 
	C241.256760,267.061676 238.542877,266.039307 235.412994,265.011536 
	C237.913696,261.050110 241.574921,262.700287 244.473434,264.448578 
	C247.917923,266.526184 250.094406,269.809204 250.048508,274.329224 
	C249.912674,287.701782 250.074081,301.077301 249.953903,314.450165 
	C249.918427,318.398254 249.229553,322.336853 249.056335,326.289276 
	C248.993683,327.719116 249.165146,329.470978 249.954987,330.540131 
	C250.771576,331.645569 252.461838,332.615448 253.784073,332.634003 
	C254.503387,332.644104 255.846924,330.575378 255.888092,329.408264 
	C256.104797,323.266968 255.998291,317.114136 255.999496,310.965332 
	C256.001556,300.329498 255.574951,289.668945 256.190521,279.068848 
	C256.473175,274.201904 255.249283,268.101929 261.689850,265.054504 
z"/>
<path fill="#F58133" opacity="1.000000" stroke="none" 
	d="
M158.263123,291.315857 
	C159.770569,290.354675 161.503983,289.342773 163.349548,289.058258 
	C168.681213,288.236359 171.568054,285.351929 172.020096,280.070526 
	C172.287262,276.949371 172.486496,273.796997 173.108414,270.738373 
	C173.820465,267.236511 175.175598,263.635437 179.399567,263.463470 
	C183.856201,263.282043 188.346436,263.925812 192.912827,264.604553 
	C192.004639,265.005371 191.005615,265.014709 190.006592,265.015594 
	C178.109985,265.026154 177.235260,265.833130 175.990036,277.759033 
	C175.080902,286.466278 167.327042,294.034027 158.263123,291.315857 
z"/>
<path fill="#F58133" opacity="1.000000" stroke="none" 
	d="
M163.994354,267.431458 
	C164.868378,270.502472 167.056992,274.365356 166.231293,277.410980 
	C165.416748,280.415375 161.357193,282.009369 157.242569,280.265076 
	C157.983704,279.261292 158.978973,278.541443 160.103760,277.530975 
	C165.257294,275.626434 163.746918,271.394958 163.994354,267.431458 
z"/>
<path fill="#F58133" opacity="1.000000" stroke="none" 
	d="
M152.582443,279.988831 
	C152.640732,282.749359 152.279694,285.506012 151.958893,288.637878 
	C151.121643,288.628326 149.853882,288.484314 149.440109,287.813538 
	C148.221527,285.837952 147.341446,283.653564 146.328888,281.550903 
	C148.273621,281.028931 150.218369,280.506958 152.582443,279.988831 
z"/>
<path fill="#F58133" opacity="1.000000" stroke="none" 
	d="
M208.451172,265.008545 
	C211.005341,261.342377 214.403763,262.606995 217.916870,264.612671 
	C214.970993,265.005707 211.938324,265.010193 208.451172,265.008545 
z"/>
<path fill="#F58133" opacity="1.000000" stroke="none" 
	d="
M226.397003,265.007568 
	C226.838562,262.230011 228.191147,262.322632 229.942261,264.656281 
	C228.934753,265.007050 227.866226,265.010468 226.397003,265.007568 
z"/>
<path fill="#F58133" opacity="1.000000" stroke="none" 
	d="
M192.728867,252.662781 
	C190.449219,253.948456 187.950958,255.390686 185.281021,255.863342 
	C178.983307,256.978210 174.236435,253.169006 173.126160,245.996338 
	C172.676331,243.090347 171.663940,241.777496 168.367706,241.987854 
	C169.464264,240.691757 170.969086,239.404053 172.473923,238.116364 
	C173.392731,239.474274 174.867264,240.729263 175.140823,242.206650 
	C177.021790,252.364105 184.728439,252.308212 192.728867,252.662781 
z"/>
<path fill="#F58133" opacity="1.000000" stroke="none" 
	d="
M254.597672,190.997726 
	C254.570572,191.637146 254.268921,192.652298 253.687576,192.851593 
	C242.471420,196.696747 237.439484,205.482529 234.784180,216.227173 
	C233.634674,220.878632 231.876587,221.603104 224.260437,220.271637 
	C225.989777,218.957214 227.992615,217.935043 230.124420,216.581909 
	C231.363358,214.755966 232.949112,213.417435 233.500977,211.738968 
	C235.896866,204.451843 240.071442,198.362595 246.010056,193.719330 
	C248.143692,192.051086 251.431717,191.859238 254.597672,190.997726 
z"/>
<path fill="#F58133" opacity="1.000000" stroke="none" 
	d="
M221.557159,219.988953 
	C220.901947,220.663788 219.867630,221.749115 218.689636,221.937881 
	C210.568253,223.239166 208.576019,225.272079 207.986954,233.264435 
	C207.673920,237.511581 207.602097,241.804398 206.868530,245.979462 
	C206.557175,247.751495 204.827377,249.274307 203.363739,250.949432 
	C203.654388,245.668839 204.233444,240.335953 205.012894,235.032532 
	C206.307724,226.222488 207.883881,218.729538 221.557159,219.988953 
z"/>
<path fill="#F58133" opacity="1.000000" stroke="none" 
	d="
M166.588135,243.021713 
	C166.652939,248.275314 166.396484,253.598434 165.958633,258.906555 
	C165.821808,260.565399 165.195450,262.183838 164.397583,263.911621 
	C163.998184,258.516968 163.838043,253.024261 164.091843,247.550735 
	C164.162216,246.033020 165.461426,244.572296 166.588135,243.021713 
z"/>
<path fill="#F58133" opacity="1.000000" stroke="none" 
	d="
M202.606583,250.992401 
	C201.846420,254.497742 199.260895,254.291580 196.214722,253.234558 
	C198.057190,252.299667 200.140778,251.649887 202.606583,250.992401 
z"/>
<path fill="#F58133" opacity="1.000000" stroke="none" 
	d="
M312.720276,243.229187 
	C315.122925,248.937546 310.329559,256.206177 304.309265,255.944672 
	C299.602325,255.740189 294.761230,255.808762 290.252502,254.673111 
	C286.023499,253.607895 284.316833,249.650482 284.041290,245.395401 
	C283.869537,242.743515 284.000610,240.071854 284.000458,237.409058 
	C283.999512,222.184662 284.222168,206.955780 283.913330,191.737640 
	C283.739227,183.160553 282.746613,174.596039 281.960449,166.040756 
	C281.866913,165.022842 280.748688,164.099075 280.105408,163.131683 
	C279.405426,164.201263 278.420746,165.185272 278.067902,166.359207 
	C277.438141,168.454269 277.189911,170.664047 276.391052,172.913239 
	C276.335724,168.622406 276.671478,164.244217 277.010193,159.434326 
	C277.823608,158.090744 278.634094,157.178848 279.721680,156.130127 
	C283.780518,155.736694 286.072845,157.063751 286.014862,161.285233 
	C285.933990,167.176575 286.008728,173.070007 286.009247,178.962540 
	C286.011169,199.887436 286.001862,220.812317 286.013702,241.737213 
	C286.018433,250.115051 287.868744,252.125580 296.024445,251.929169 
	C299.644653,251.841980 303.248138,251.061035 306.911621,250.171326 
	C307.372620,249.494522 307.781189,249.241394 308.416199,248.911407 
	C309.911102,247.044312 311.179565,245.254089 312.720276,243.229187 
z"/>
<path fill="#F58133" opacity="1.000000" stroke="none" 
	d="
M342.978027,244.986679 
	C345.602661,248.840469 342.455719,251.171188 339.964355,251.624161 
	C334.760773,252.570251 329.285980,252.796570 324.010254,252.329041 
	C319.801086,251.956055 319.012451,248.002411 319.037689,244.369461 
	C319.066162,240.267014 317.291809,239.356155 313.384216,240.960876 
	C316.269073,235.905212 319.123138,230.466064 322.983551,225.872681 
	C324.572296,223.982285 328.282318,223.725479 331.105408,223.052673 
	C337.020416,221.643005 342.953705,220.244492 348.949280,219.271332 
	C351.289520,218.891464 353.817566,219.668488 356.669006,219.957703 
	C357.132690,221.056564 357.187439,222.116272 357.163757,223.567444 
	C356.904846,224.867722 356.724365,225.776550 356.817078,226.864502 
	C357.126587,238.384903 357.162872,249.726166 357.112793,261.528259 
	C353.306519,264.310516 349.375885,265.784912 344.441559,265.004578 
	C345.115723,264.334076 346.184021,263.208618 347.360626,263.080811 
	C352.828552,262.487152 354.070251,261.256042 354.009735,256.138519 
	C353.943909,250.570007 354.133026,244.995804 353.955780,239.432190 
	C353.819183,235.144623 353.577728,230.814957 352.785736,226.616653 
	C352.480713,224.999573 350.455627,222.437622 349.334961,222.499283 
	C346.739960,222.642105 343.977081,223.768341 341.797577,225.252548 
	C341.028656,225.776184 341.556000,228.538315 341.859589,230.211639 
	C342.191101,232.039078 342.949127,233.789108 342.932648,235.620300 
	C341.182037,234.157822 340.330261,231.918015 338.802429,231.268585 
	C333.187378,228.881775 323.508423,233.721390 322.388794,239.760986 
	C321.137543,246.510574 321.196381,250.244629 329.740051,250.002258 
	C331.903107,249.940887 334.101349,250.201721 336.219666,249.886337 
	C337.210388,249.738831 338.049316,248.572113 339.105927,247.707458 
	C339.461761,247.341843 339.680969,247.150146 340.233612,246.959534 
	C341.362549,246.293304 342.170288,245.639999 342.978027,244.986679 
z"/>
<path fill="#41180C" opacity="1.000000" stroke="none" 
	d="
M319.322235,194.833740 
	C319.093842,194.380814 319.080750,193.729340 319.327148,193.015488 
	C319.570251,193.513809 319.553894,194.074509 319.322235,194.833740 
z"/>
<path fill="#F58133" opacity="1.000000" stroke="none" 
	d="
M190.998901,285.850342 
	C191.365662,281.015900 194.422745,280.415375 197.802505,281.187317 
	C201.108810,281.942535 201.637268,284.890747 200.785233,287.559082 
	C200.340988,288.950409 197.840576,291.055359 197.201218,290.767456 
	C194.921432,289.740906 193.041306,287.826752 190.998901,285.850342 
z"/>
<path fill="#F58133" opacity="1.000000" stroke="none" 
	d="
M325.455383,265.000732 
	C328.359100,261.309296 332.090820,262.739166 335.914185,264.603912 
	C332.639709,264.998840 329.276703,265.002594 325.455383,265.000732 
z"/>
<path fill="#280E07" opacity="1.000000" stroke="none" 
	d="
M303.000488,187.985443 
	C302.925446,188.016907 302.846405,188.068253 302.901184,188.055939 
	C303.035034,187.992294 302.996521,188.005310 303.000488,187.985443 
z"/>
<path fill="#190602" opacity="1.000000" stroke="none" 
	d="
M231.072372,234.990936 
	C236.700058,234.990845 241.838745,234.990845 247.172195,234.990845 
	C246.344254,239.322754 245.838928,243.220734 244.740631,246.943802 
	C244.414017,248.050980 242.456970,249.326431 241.187531,249.393112 
	C235.870758,249.672440 230.531128,249.492416 225.200424,249.540985 
	C222.414886,249.566376 221.275742,248.168411 221.407379,245.507950 
	C221.423813,245.175888 221.394669,244.841797 221.394196,244.508636 
	C221.378174,233.245285 220.804626,235.201416 231.072372,234.990936 
z"/>
<path fill="#F58133" opacity="1.000000" stroke="none" 
	d="
M285.854919,284.329712 
	C287.582489,281.832336 289.067902,279.632690 290.726959,277.572906 
	C294.916229,272.371735 301.025787,272.017212 305.464661,277.059448 
	C310.250732,282.496002 310.105408,295.765137 302.382019,298.382904 
	C298.307129,299.763977 292.717346,299.605164 288.819885,297.872894 
	C283.383423,295.456635 284.509857,289.670502 285.854919,284.329712 
M289.005280,292.995422 
	C289.005280,292.995422 289.017578,293.007019 289.136719,293.806091 
	C293.608459,293.757965 298.303314,294.514679 302.468292,293.360046 
	C304.968628,292.666870 304.494019,283.011414 302.135956,279.453918 
	C302.089355,279.289734 302.042786,279.125549 301.907684,278.245148 
	C297.414673,276.348328 291.049744,279.231445 289.143433,284.632874 
	C288.250092,287.164124 284.322083,290.173126 289.005280,292.995422 
z"/>
<path fill="#220906" opacity="1.000000" stroke="none" 
	d="
M260.988159,246.996933 
	C261.008789,246.559784 261.029449,246.122620 261.124023,244.964874 
	C261.110199,243.150818 261.022461,242.057373 260.934723,240.963913 
	C260.985199,239.906204 261.035675,238.848480 261.300751,237.236374 
	C261.702393,236.150528 261.889404,235.619095 262.076447,235.087646 
	C262.076447,235.087646 262.002625,235.000000 262.483887,235.086411 
	C263.959473,235.163406 264.969604,235.264801 265.945496,235.125824 
	C270.658447,234.454666 272.699463,236.261536 272.107117,241.158478 
	C271.833069,243.424164 272.230377,245.771042 272.323303,248.081116 
	C272.323303,248.081116 272.077393,248.471497 271.558411,248.691208 
	C267.688995,248.272934 264.338562,247.634933 260.988159,246.996933 
z"/>
<path fill="#D3753B" opacity="1.000000" stroke="none" 
	d="
M342.979370,244.538177 
	C342.170288,245.639999 341.362549,246.293304 340.201843,246.499176 
	C339.867432,242.887726 340.186157,239.682739 339.762146,236.579193 
	C339.583588,235.271973 337.993652,233.360107 336.777191,233.127914 
	C330.999054,232.025085 324.265564,237.799042 323.905579,243.690796 
	C323.745300,246.313812 324.539703,247.837479 327.471222,247.790970 
	C331.298462,247.730270 335.128296,247.834229 338.957031,247.867340 
	C338.049316,248.572113 337.210388,249.738831 336.219666,249.886337 
	C334.101349,250.201721 331.903107,249.940887 329.740051,250.002258 
	C321.196381,250.244629 321.137543,246.510574 322.388794,239.760986 
	C323.508423,233.721390 333.187378,228.881775 338.802429,231.268585 
	C340.330261,231.918015 341.182037,234.157822 342.661499,235.838959 
	C342.979553,238.703369 342.980133,241.396530 342.979370,244.538177 
z"/>
<path fill="#D8783E" opacity="1.000000" stroke="none" 
	d="
M245.848663,216.142456 
	C244.951492,214.810837 243.125824,213.332153 243.309631,212.171738 
	C244.407120,205.242462 251.159470,198.805328 258.297791,198.332123 
	C260.360901,198.195374 263.667633,200.016556 264.526794,201.829727 
	C266.673492,206.360001 267.298553,211.372314 263.369446,215.900803 
	C262.902100,215.909790 262.681030,215.701553 262.684814,215.259201 
	C262.712128,211.662689 262.584564,208.498260 262.797852,205.356979 
	C263.057678,201.530792 261.092377,200.821671 257.882050,201.292419 
	C251.172775,202.276245 246.250320,208.354111 246.134918,215.869476 
	C246.039902,215.960892 245.848663,216.142456 245.848663,216.142456 
z"/>
<path fill="#F58133" opacity="1.000000" stroke="none" 
	d="
M278.318604,281.953552 
	C279.169525,279.325745 280.084930,276.483307 281.642670,274.052521 
	C285.030853,268.765503 283.652618,265.654755 277.314789,265.033936 
	C276.495392,264.953674 275.661865,265.017090 274.415619,265.006958 
	C274.307373,264.256958 274.775787,262.839661 274.906281,262.870117 
	C277.695282,263.521088 280.665619,263.932739 283.119751,265.272156 
	C284.513092,266.032593 286.224091,268.910278 285.767151,269.893036 
	C283.813629,274.094879 281.106567,277.946381 278.318604,281.953552 
z"/>
<path fill="#D8783E" opacity="1.000000" stroke="none" 
	d="
M263.012451,216.014099 
	C260.221069,221.382950 250.694138,221.789352 245.945679,216.494720 
	C245.848663,216.142456 246.039902,215.960892 246.578415,215.952789 
	C252.304962,215.863632 257.492981,215.782593 262.681030,215.701553 
	C262.681030,215.701553 262.902100,215.909790 263.012451,216.014099 
z"/>
<path fill="#BA6234" opacity="1.000000" stroke="none" 
	d="
M272.679260,247.945709 
	C272.230377,245.771042 271.833069,243.424164 272.107117,241.158478 
	C272.699463,236.261536 270.658447,234.454666 265.945496,235.125824 
	C264.969604,235.264801 263.959473,235.163406 262.524048,235.127670 
	C263.939301,230.947479 267.495087,233.529709 270.203827,233.325546 
	C271.180054,233.251984 273.141327,235.541611 273.261475,236.877899 
	C273.585846,240.486099 273.162109,244.161545 272.679260,247.945709 
z"/>
<path fill="#BA6234" opacity="1.000000" stroke="none" 
	d="
M260.710693,247.212112 
	C264.338562,247.634933 267.688995,248.272934 271.480774,248.908463 
	C269.640564,253.422119 265.800018,250.946671 262.620819,250.729187 
	C261.820068,250.674408 261.158661,248.582855 260.710693,247.212112 
z"/>
<path fill="#BA6234" opacity="1.000000" stroke="none" 
	d="
M260.599731,241.027817 
	C261.022461,242.057373 261.110199,243.150818 261.070251,244.640381 
	C260.716614,243.721573 260.490662,242.406647 260.599731,241.027817 
z"/>
<path fill="#BA6234" opacity="1.000000" stroke="none" 
	d="
M261.773560,235.055969 
	C261.889404,235.619095 261.702393,236.150528 261.275208,236.839508 
	C261.180267,236.339447 261.325470,235.681854 261.773560,235.055969 
z"/>
<path fill="#F58133" opacity="1.000000" stroke="none" 
	d="
M276.301025,286.972168 
	C276.167908,286.445953 276.328491,285.887604 276.731110,285.157227 
	C276.846985,285.636841 276.720856,286.288452 276.301025,286.972168 
z"/>
<path fill="#280E07" opacity="1.000000" stroke="none" 
	d="
M339.105927,247.707443 
	C335.128296,247.834229 331.298462,247.730270 327.471222,247.790970 
	C324.539703,247.837479 323.745300,246.313812 323.905579,243.690796 
	C324.265564,237.799042 330.999054,232.025085 336.777191,233.127914 
	C337.993652,233.360107 339.583588,235.271973 339.762146,236.579193 
	C340.186157,239.682739 339.867432,242.887726 339.880646,246.512085 
	C339.680969,247.150146 339.461761,247.341843 339.105927,247.707443 
z"/>
<path fill="#220906" opacity="1.000000" stroke="none" 
	d="
M301.996185,278.961365 
	C302.042786,279.125549 302.089355,279.289734 302.108093,280.127075 
	C301.669495,293.435547 301.669495,293.435547 289.017578,293.007019 
	C289.017578,293.007019 289.005280,292.995422 289.040558,292.586761 
	C289.406738,283.934875 294.039368,279.195953 301.996185,278.961365 
z"/>
<path fill="#BA6234" opacity="1.000000" stroke="none" 
	d="
M289.077148,293.406555 
	C301.669495,293.435547 301.669495,293.435547 302.230896,280.351715 
	C304.494019,283.011414 304.968628,292.666870 302.468292,293.360046 
	C298.303314,294.514679 293.608459,293.757965 289.077148,293.406555 
z"/>
<path fill="#BA6234" opacity="1.000000" stroke="none" 
	d="
M301.951935,278.603271 
	C294.039368,279.195953 289.406738,283.934875 289.036011,292.579620 
	C284.322083,290.173126 288.250092,287.164124 289.143433,284.632874 
	C291.049744,279.231445 297.414673,276.348328 301.951935,278.603271 
z"/>
<path fill="#220906" opacity="1.000000" stroke="none" 
	d="
M262.684814,215.259201 
	C257.492981,215.782593 252.304962,215.863632 246.673431,215.861389 
	C246.250320,208.354111 251.172775,202.276245 257.882050,201.292419 
	C261.092377,200.821671 263.057678,201.530792 262.797852,205.356979 
	C262.584564,208.498260 262.712128,211.662689 262.684814,215.259201 
z"/>
</svg>