<svg version="1.1" id="Layer_1" xmlns="http://www.w3.org/2000/svg" xmlns:xlink="http://www.w3.org/1999/xlink" x="0px" y="0px"
	 width="100%" viewBox="0 0 512 512" enable-background="new 0 0 512 512" xml:space="preserve">
<path fill="#000000" opacity="1.000000" stroke="none" 
	d="
M230.000000,513.000000 
	C153.351913,513.000000 77.203827,513.000000 1.027873,513.000000 
	C1.027873,342.393555 1.027873,171.787109 1.027873,1.090327 
	C171.564774,1.090327 342.129608,1.090327 512.847229,1.090327 
	C512.847229,171.666565 512.847229,342.333252 512.847229,513.000000 
	C418.787079,513.000000 324.643524,513.000000 230.000000,513.000000 
M315.022064,335.032135 
	C315.022064,335.032135 315.097687,335.020538 315.754456,334.801544 
	C316.479065,333.157928 317.203644,331.514343 317.896301,329.057434 
	C318.154602,327.731323 318.412903,326.405243 319.180878,324.563690 
	C319.397430,323.943146 319.801392,323.323090 319.802887,322.702026 
	C319.834534,309.584564 319.851349,296.466827 319.767395,283.349762 
	C319.759308,282.083038 319.071136,280.820618 318.496582,278.711487 
	C318.989014,275.037506 319.481445,271.363556 320.894592,267.892334 
	C328.319763,267.894501 335.746704,267.995605 343.169464,267.863098 
	C347.914398,267.778381 352.653137,267.348206 357.999054,266.643250 
	C358.310730,265.391449 358.887146,264.140930 358.893341,262.887604 
	C358.958679,249.667938 358.963898,236.447632 358.887726,223.228073 
	C358.879517,221.807480 358.252136,220.390442 357.761078,218.133087 
	C356.828491,216.081055 359.906738,212.182724 354.498413,212.148148 
	C354.223999,212.322876 354.045441,212.567566 353.660675,213.423706 
	C352.636597,214.081879 351.612518,214.740036 349.735291,215.228104 
	C345.512054,215.082489 340.560547,217.477371 338.120331,211.109238 
	C337.725739,209.753296 337.331146,208.397339 336.751892,206.494888 
	C336.093933,206.218811 335.435944,205.942734 334.370789,205.373337 
	C334.234833,205.275864 334.098907,205.178391 333.959930,204.339584 
	C335.000916,202.702637 336.041901,201.065689 337.845062,199.247009 
	C341.150909,198.088623 340.810791,196.121216 338.813934,193.198395 
	C337.434937,191.110504 336.055939,189.022614 334.785583,186.081543 
	C334.814636,183.059357 336.195587,179.289566 331.881866,178.166534 
	C327.583374,177.047485 324.498871,179.232254 322.647766,183.095581 
	C321.721863,185.028000 321.039001,187.076874 319.407776,189.045242 
	C318.291321,189.024261 317.174896,189.003281 315.530182,188.536743 
	C313.615479,188.214020 311.700806,187.891296 308.849670,187.339981 
	C307.271820,187.207184 305.693939,187.074387 303.611267,186.436203 
	C299.159027,184.265808 298.415863,184.737244 298.002655,190.522705 
	C297.812622,192.188614 297.622620,193.854523 297.141327,196.266052 
	C296.995789,197.845245 296.850281,199.424454 295.952087,201.001389 
	C293.996582,201.326050 292.041107,201.650726 289.519257,201.963455 
	C289.331268,201.974213 289.143311,201.984985 288.728149,201.082153 
	C288.520325,186.394089 288.312469,171.706009 288.453369,156.328217 
	C290.152679,151.519318 287.448853,148.353043 284.244080,145.504318 
	C282.996796,144.395584 281.119537,142.768707 279.975342,143.070297 
	C278.420868,143.480072 277.294434,145.513794 276.866089,145.951035 
	C279.673889,147.752640 281.672943,149.035324 283.252655,150.729172 
	C282.766937,151.331970 282.281219,151.934753 281.198181,152.693893 
	C280.858704,152.925476 280.519196,153.157059 279.601105,153.440002 
	C279.093292,153.972305 278.585510,154.504593 277.551270,155.447205 
	C276.242584,157.520309 274.933868,159.593414 273.198792,161.988541 
	C273.138092,162.992081 273.077393,163.995636 272.923340,165.931473 
	C272.754761,171.843323 272.586212,177.755157 271.985596,183.898254 
	C271.543945,184.371307 271.102325,184.844360 269.830383,185.412949 
	C265.462646,186.362671 261.131165,187.865128 256.720093,188.154572 
	C245.208389,188.910019 236.713593,195.038391 233.758423,205.242432 
	C230.754837,215.613663 225.212494,217.818481 215.723495,217.742371 
	C207.438171,217.675888 203.199463,222.895508 202.866287,231.247299 
	C202.680695,235.899689 202.721497,240.566071 202.817032,245.222931 
	C202.877792,248.184113 201.634720,249.454529 198.675430,249.412811 
	C193.518280,249.340073 188.355621,249.314072 183.201767,249.475525 
	C179.915680,249.578445 178.766769,248.153061 178.884796,244.999100 
	C179.036942,240.933304 178.921829,236.857513 178.921829,232.620087 
	C165.141510,235.667130 160.848831,240.758057 160.718094,253.581436 
	C160.657028,259.570892 160.545303,265.572418 160.846161,271.548859 
	C161.070343,276.002380 159.309723,277.530396 155.011856,277.161591 
	C151.875259,276.892395 148.693115,277.112213 145.532471,277.174774 
	C140.485336,277.274689 139.710678,278.497498 141.757339,283.174286 
	C145.222458,291.092468 151.905670,294.192596 160.303131,295.827942 
	C167.161423,298.113129 174.826691,295.036255 177.843506,288.767700 
	C179.924255,284.444122 181.616425,279.876678 184.179413,275.863434 
	C185.715439,273.458252 188.366150,270.725922 190.918259,270.235779 
	C195.522141,269.351532 200.432999,269.909180 205.206512,270.097107 
	C215.407806,270.498718 225.599625,271.165283 235.802795,271.484070 
	C240.252563,271.623108 242.346100,273.308624 241.991852,277.844238 
	C241.609543,282.738892 240.767197,287.596741 240.344681,292.489594 
	C240.207932,294.073029 240.755966,295.717377 241.003860,297.331848 
	C241.301956,299.273346 241.907501,301.218689 241.868149,303.151947 
	C241.715958,310.626495 240.971207,318.112030 241.261856,325.561676 
	C241.386795,328.764374 243.502441,331.889404 245.000626,335.816956 
	C246.284012,336.579773 247.502472,337.817566 248.864670,338.003815 
	C251.480545,338.361359 254.182556,338.027191 256.840271,338.156464 
	C259.834747,338.302124 261.015686,336.983765 261.017456,334.027649 
	C261.020599,328.709534 261.237274,323.391541 261.866425,317.845367 
	C262.234741,317.228638 262.603088,316.611877 263.694519,316.057129 
	C266.691925,318.708313 269.689331,321.359528 272.834595,324.508667 
	C272.896484,324.670349 272.958374,324.832062 272.941559,325.820831 
	C273.149567,332.533356 276.153320,337.277374 282.267426,340.385773 
	C292.493500,345.584778 302.269379,345.288788 312.537354,338.849152 
	C313.369690,337.601990 314.202026,336.354828 315.022064,335.032135 
M223.027435,300.030182 
	C210.968323,305.264771 209.051758,308.437164 209.792740,321.857391 
	C209.985352,325.345978 210.284027,328.838989 210.254974,332.327637 
	C210.170090,342.526550 203.547852,348.739532 193.383743,348.319397 
	C184.743149,347.962250 179.578110,342.801361 178.051483,332.936859 
	C177.429214,328.915924 176.891159,324.881958 176.314789,320.853943 
	C175.786743,320.606842 175.258698,320.359711 174.730652,320.112610 
	C172.829239,321.924194 170.430771,323.433716 169.113861,325.600555 
	C163.874496,334.221436 165.494720,348.145721 172.684647,355.368988 
	C182.081696,364.809662 193.776566,367.533600 206.288681,364.151703 
	C218.351761,360.891174 227.538132,352.785583 229.103973,340.228699 
	C230.798203,326.642151 229.783005,312.717346 229.917099,298.939758 
	C229.919449,298.698029 229.514343,298.452271 228.874527,297.726410 
	C227.287094,298.341919 225.495468,299.036621 223.027435,300.030182 
M194.945984,275.139160 
	C190.658264,275.797852 186.879623,277.755829 186.462036,282.254303 
	C186.116730,285.974335 186.349686,290.518982 188.234055,293.487244 
	C190.808640,297.542755 197.850906,298.245819 201.342178,295.504578 
	C204.363800,293.132050 208.754898,291.308746 207.083527,285.716614 
	C204.554962,277.256500 202.546692,275.125793 194.945984,275.139160 
z"/>
<path fill="#D3763C" opacity="1.000000" stroke="none" 
	d="
M159.944946,295.228882 
	C151.905670,294.192596 145.222458,291.092468 141.757339,283.174286 
	C139.710678,278.497498 140.485336,277.274689 145.532471,277.174774 
	C148.693115,277.112213 151.875259,276.892395 155.011856,277.161591 
	C159.309723,277.530396 161.070343,276.002380 160.846161,271.548859 
	C160.545303,265.572418 160.657028,259.570892 160.718094,253.581436 
	C160.848831,240.758057 165.141510,235.667130 178.921829,232.620087 
	C178.921829,236.857513 179.036942,240.933304 178.884796,244.999100 
	C178.766769,248.153061 179.915680,249.578445 183.201767,249.475525 
	C188.355621,249.314072 193.518280,249.340073 198.675430,249.412811 
	C201.634720,249.454529 202.877792,248.184113 202.817032,245.222931 
	C202.721497,240.566071 202.680695,235.899689 202.866287,231.247299 
	C203.199463,222.895508 207.438171,217.675888 215.723495,217.742371 
	C225.212494,217.818481 230.754837,215.613663 233.758423,205.242432 
	C236.713593,195.038391 245.208389,188.910019 256.720093,188.154572 
	C261.131165,187.865128 265.462646,186.362671 270.260437,185.732361 
	C269.747040,187.675507 268.803528,189.299271 267.560425,190.914276 
	C266.859741,190.904556 266.458710,190.903580 265.764313,190.725296 
	C263.966187,190.676224 262.461456,190.804459 260.531738,190.932861 
	C258.406219,190.956940 256.705688,190.980865 254.622284,191.025482 
	C246.837906,192.060165 242.018738,196.385635 238.972748,202.978897 
	C238.988876,202.993576 238.963425,202.969147 238.692490,203.159576 
	C237.593231,204.892059 236.764923,206.434097 235.754089,208.191467 
	C235.362122,208.925812 235.152634,209.444839 234.735779,210.255280 
	C233.210541,214.286392 232.108612,218.177628 227.524124,219.921448 
	C225.402695,219.941971 223.705383,219.963409 221.680969,219.999146 
	C220.550858,220.313065 219.747879,220.612671 218.577606,220.909729 
	C217.475891,220.923141 216.741486,220.939087 215.664001,220.975250 
	C214.182114,221.645782 213.043304,222.296066 211.648422,223.103973 
	C210.571625,224.128769 209.750900,224.995941 208.601105,226.026840 
	C207.504028,229.129105 206.736038,232.067627 205.959702,235.440796 
	C205.945221,237.903046 205.939087,239.930649 205.743134,242.279160 
	C205.014313,245.058380 204.475296,247.516678 203.756348,250.115387 
	C203.348175,250.459671 203.148514,250.688492 202.614319,251.024567 
	C200.146759,251.705093 198.042328,252.303345 195.578461,252.894745 
	C194.500015,252.890076 193.781036,252.892273 192.741669,252.726166 
	C191.768951,252.493927 191.101135,252.305679 190.466583,252.384644 
	C180.339844,253.644791 177.539932,251.751282 174.847977,242.086349 
	C174.546600,241.004303 173.049072,239.277527 172.545105,239.418518 
	C171.190231,239.797546 170.073135,241.026520 168.520569,242.016022 
	C166.792847,245.074310 165.406158,248.034668 164.004578,251.455902 
	C163.995544,255.613098 164.001404,259.309418 163.998108,263.421356 
	C163.992432,265.222626 163.995911,266.608246 163.988998,268.425903 
	C164.571823,273.577972 163.270660,277.440918 158.537476,279.941345 
	C156.410034,279.953949 154.707932,279.968658 152.611206,279.978333 
	C150.395813,280.717560 148.575043,281.461792 146.754272,282.206055 
	C147.763611,283.880463 148.743362,285.574005 149.804581,287.214905 
	C150.047684,287.590759 150.571320,287.785217 151.172073,288.341095 
	C154.251617,289.744904 157.124924,290.870789 160.386002,291.998169 
	C163.209885,291.014374 165.645996,290.029114 168.360870,288.866333 
	C170.449112,286.473572 172.258621,284.258362 174.269165,281.685913 
	C174.666794,279.372101 174.992935,277.418335 175.036697,275.458282 
	C175.194000,268.414368 178.307373,265.262665 185.277985,265.006042 
	C187.214706,264.934753 189.134979,264.416718 191.464722,264.193115 
	C197.241425,264.523834 202.616211,264.765076 208.446075,265.017792 
	C211.937210,265.020721 214.973297,265.012207 218.458344,265.013306 
	C221.601761,265.016479 224.296234,265.010071 227.367889,265.014740 
	C228.499756,265.019958 229.254410,265.014099 230.436188,265.017334 
	C232.572510,265.023438 234.281723,265.020508 236.416077,265.027954 
	C239.551056,265.384796 242.260895,265.731232 244.984619,266.307343 
	C244.998489,266.537048 245.045547,266.994873 245.062744,267.223206 
	C245.079926,267.451538 245.141602,267.905334 244.977753,268.033295 
	C244.813889,268.161255 244.488251,268.419800 244.051956,268.406891 
	C223.705658,268.334137 203.794601,268.366180 183.886475,268.140808 
	C179.646759,268.092804 179.089966,270.077209 179.024261,273.598053 
	C178.754410,288.060333 174.007355,293.327118 159.944946,295.228882 
z"/>
<path fill="#D3763C" opacity="1.000000" stroke="none" 
	d="
M223.365631,299.880737 
	C225.495468,299.036621 227.287094,298.341919 228.874527,297.726410 
	C229.514343,298.452271 229.919449,298.698029 229.917099,298.939758 
	C229.783005,312.717346 230.798203,326.642151 229.103973,340.228699 
	C227.538132,352.785583 218.351761,360.891174 206.288681,364.151703 
	C193.776566,367.533600 182.081696,364.809662 172.684647,355.368988 
	C165.494720,348.145721 163.874496,334.221436 169.113861,325.600555 
	C170.430771,323.433716 172.829239,321.924194 174.730652,320.112610 
	C175.258698,320.359711 175.786743,320.606842 176.314789,320.853943 
	C176.891159,324.881958 177.429214,328.915924 178.051483,332.936859 
	C179.578110,342.801361 184.743149,347.962250 193.383743,348.319397 
	C203.547852,348.739532 210.170090,342.526550 210.254974,332.327637 
	C210.284027,328.838989 209.985352,325.345978 209.792740,321.857391 
	C209.051758,308.437164 210.968323,305.264771 223.365631,299.880737 
M173.215515,350.105530 
	C178.199570,358.311432 191.733368,363.682831 202.576416,361.626892 
	C212.957687,359.658539 220.733154,353.890656 224.611984,344.118469 
	C229.034729,332.976013 226.715805,321.091156 226.795059,309.514923 
	C226.804565,308.127655 224.798264,305.767303 223.423218,305.515961 
	C219.802338,304.854065 214.021637,310.638336 213.972244,314.475098 
	C213.893372,320.597900 213.932449,326.722198 213.923279,332.845886 
	C213.906296,344.165985 205.576614,350.841614 199.845062,351.779266 
	C187.402542,353.814850 179.456024,349.328644 175.673248,338.701660 
	C174.851089,336.391968 173.564407,334.247681 172.491684,332.027191 
	C168.403427,338.477509 170.565155,343.950714 173.215515,350.105530 
z"/>
<path fill="#040102" opacity="1.000000" stroke="none" 
	d="
M290.085602,201.975388 
	C292.041107,201.650726 293.996582,201.326050 296.590149,201.229736 
	C299.858917,204.601105 302.489655,207.744110 305.095947,211.183868 
	C306.023621,211.943909 306.975739,212.407211 308.287628,212.881744 
	C310.095123,212.303802 311.542816,211.714630 313.196899,211.040955 
	C313.403290,210.956482 313.840973,210.870804 314.285339,210.899323 
	C318.670105,210.903046 322.708832,210.357269 326.509003,211.074921 
	C328.387726,211.429749 329.826630,214.113663 331.464539,215.743744 
	C329.928711,216.777817 328.519562,218.368652 326.835632,218.751785 
	C318.557587,220.635178 313.065399,225.403152 310.066681,233.348557 
	C308.667267,237.056290 306.782471,240.588638 305.003052,244.143112 
	C302.918030,248.307938 299.076721,247.303787 295.788788,246.688446 
	C292.589294,246.089615 290.773651,243.895462 290.892487,240.236511 
	C291.075653,234.596558 291.038849,228.943481 290.902954,223.300613 
	C290.731750,216.189758 290.366882,209.083588 290.085602,201.975388 
z"/>
<path fill="#F58133" opacity="1.000000" stroke="none" 
	d="
M319.973846,267.689575 
	C319.481445,271.363556 318.989014,275.037506 318.409546,279.217163 
	C318.322510,279.722839 318.020782,280.002594 317.703522,280.134521 
	C315.487457,283.646606 315.279449,286.917694 318.089539,290.462585 
	C318.333679,302.310547 318.502441,313.694855 318.671204,325.079132 
	C318.412903,326.405243 318.154602,327.731323 317.597717,329.608093 
	C316.565308,331.779358 315.831512,333.399933 315.097687,335.020538 
	C315.097687,335.020538 315.022064,335.032135 314.723511,335.151062 
	C313.521210,336.151337 312.617493,337.032654 311.367310,337.987732 
	C300.665436,342.669159 290.403107,345.353912 281.286163,335.664276 
	C279.846313,334.133942 279.260345,331.800232 278.279572,329.837952 
	C280.176483,329.205811 282.037933,328.194641 283.977020,328.013245 
	C289.576416,327.489349 295.259033,327.663147 300.809814,326.869385 
	C305.678772,326.173126 306.150726,322.122284 305.957184,318.022736 
	C305.822388,315.167877 306.182892,312.037109 301.909882,312.078491 
	C301.973633,311.998749 301.858002,312.165375 301.736176,311.807007 
	C300.290588,310.974060 298.993347,310.197327 297.638336,310.078278 
	C292.400848,309.618195 287.148376,309.280701 281.894592,309.070557 
	C278.473846,308.933777 276.111206,307.835419 276.302368,304.123993 
	C279.743652,305.163696 282.792694,306.499786 285.958557,306.891235 
	C289.732574,307.357941 293.611633,306.894806 297.436401,307.050354 
	C303.395111,307.292694 308.556152,311.408722 308.961639,316.035828 
	C309.620087,323.549622 306.652191,328.394775 299.855530,329.942810 
	C296.332947,330.745178 292.609070,330.647919 288.981689,331.012756 
	C287.139923,331.198059 285.310577,331.506805 283.475616,331.759735 
	C283.316925,332.216583 283.158203,332.673431 282.999512,333.130310 
	C284.508545,334.478577 285.801300,336.332123 287.564392,337.086884 
	C294.885254,340.220917 302.238953,339.538361 308.273499,334.507599 
	C313.248657,330.359985 314.741058,324.406128 313.559387,317.718384 
	C312.906586,314.023865 313.372314,310.119415 313.447662,306.311859 
	C313.533020,301.996338 313.820587,297.684540 313.886597,293.369049 
	C314.002960,285.759827 313.835480,278.141693 314.144714,270.541809 
	C314.326202,266.081543 317.299744,264.248383 321.832031,265.237366 
	C321.083374,266.194824 320.528595,266.942200 319.973846,267.689575 
M316.475739,274.497192 
	C316.475739,274.497192 316.528534,274.477692 316.475739,274.497192 
z"/>
<path fill="#280E07" opacity="1.000000" stroke="none" 
	d="
M160.124039,295.528412 
	C174.007355,293.327118 178.754410,288.060333 179.024261,273.598053 
	C179.089966,270.077209 179.646759,268.092804 183.886475,268.140808 
	C203.794601,268.366180 223.705658,268.334137 244.135651,268.839294 
	C244.674988,291.206299 244.694336,313.128021 244.713684,335.049713 
	C243.502441,331.889404 241.386795,328.764374 241.261856,325.561676 
	C240.971207,318.112030 241.715958,310.626495 241.868149,303.151947 
	C241.907501,301.218689 241.301956,299.273346 241.003860,297.331848 
	C240.755966,295.717377 240.207932,294.073029 240.344681,292.489594 
	C240.767197,287.596741 241.609543,282.738892 241.991852,277.844238 
	C242.346100,273.308624 240.252563,271.623108 235.802795,271.484070 
	C225.599625,271.165283 215.407806,270.498718 205.206512,270.097107 
	C200.432999,269.909180 195.522141,269.351532 190.918259,270.235779 
	C188.366150,270.725922 185.715439,273.458252 184.179413,275.863434 
	C181.616425,279.876678 179.924255,284.444122 177.843506,288.767700 
	C174.826691,295.036255 167.161423,298.113129 160.124039,295.528412 
z"/>
<path fill="#D3763C" opacity="1.000000" stroke="none" 
	d="
M244.857147,335.433350 
	C244.694336,313.128021 244.674988,291.206299 244.571945,268.852203 
	C244.488251,268.419800 244.813889,268.161255 245.246277,268.308228 
	C246.109940,270.682587 246.714890,272.892822 246.936172,275.140839 
	C247.390106,279.752472 247.638382,284.384308 247.965027,289.423218 
	C247.967590,291.223358 247.976440,292.608124 247.976196,294.462280 
	C247.969635,302.623352 247.972168,310.314972 247.966965,318.469299 
	C247.965027,322.953613 247.970810,326.975250 248.063751,331.351135 
	C250.300201,332.725830 252.713745,334.856445 254.517883,334.426941 
	C256.052185,334.061737 257.818939,330.770691 257.872833,328.731598 
	C258.187622,316.824188 258.028290,304.904205 258.039001,292.616394 
	C258.041779,291.500031 258.034576,290.755707 258.037933,289.544006 
	C258.044006,284.380585 258.039520,279.684540 258.045288,274.570435 
	C258.059082,272.480316 258.062592,270.808258 258.344421,269.009094 
	C259.098541,268.252380 259.574280,267.622864 260.304962,266.712097 
	C265.036652,265.954315 269.513458,265.477753 274.419983,265.014069 
	C276.569641,265.025024 278.289612,265.023071 280.318115,265.037476 
	C281.038605,265.057343 281.450562,265.060852 281.895874,265.410095 
	C282.022491,266.443573 282.115692,267.131348 282.040588,267.951721 
	C281.872314,268.084351 281.531860,268.344635 281.093353,268.372894 
	C275.522552,268.344147 270.389038,268.336975 265.258514,268.209442 
	C262.624512,268.143982 261.258545,269.071716 261.271881,271.911438 
	C261.344116,287.298584 261.341522,302.686127 261.364746,318.073517 
	C261.237274,323.391541 261.020599,328.709534 261.017456,334.027649 
	C261.015686,336.983765 259.834747,338.302124 256.840271,338.156464 
	C254.182556,338.027191 251.480545,338.361359 248.864670,338.003815 
	C247.502472,337.817566 246.284012,336.579773 244.857147,335.433350 
z"/>
<path fill="#040102" opacity="1.000000" stroke="none" 
	d="
M272.686707,324.010742 
	C269.689331,321.359528 266.691925,318.708313 263.327789,315.582886 
	C262.967285,312.741638 262.973511,310.374603 263.310699,307.876282 
	C264.524902,306.579163 266.093384,305.459991 266.176300,304.239868 
	C266.602936,297.960114 266.789429,291.651428 266.653412,285.361633 
	C266.635803,284.547119 264.264038,283.783539 262.973969,282.541016 
	C262.962982,280.755920 262.992767,279.425110 262.952209,278.096466 
	C262.853668,274.867737 262.710785,271.482330 266.444336,270.140015 
	C267.743805,269.672821 270.564148,269.948517 270.779663,270.559143 
	C271.700562,273.168182 272.445648,276.063751 272.270599,278.791626 
	C271.806763,286.018799 270.846497,293.214752 270.051270,300.419556 
	C269.852966,302.216003 269.570282,304.005615 269.259521,305.786682 
	C268.346222,311.021576 273.266418,315.181244 278.350891,314.850586 
	C284.455139,314.453613 290.666779,315.266083 296.784332,315.968994 
	C297.754211,316.080383 298.473969,318.368927 299.309387,319.650909 
	C297.784698,320.343689 296.313019,321.457336 294.726227,321.657288 
	C287.397247,322.580872 280.036224,323.250244 272.686707,324.010742 
z"/>
<path fill="#D8783E" opacity="1.000000" stroke="none" 
	d="
M281.795471,152.537537 
	C282.281219,151.934753 282.766937,151.331970 283.816223,150.519150 
	C289.377655,150.459869 285.969818,155.277588 288.104645,157.017944 
	C288.312469,171.706009 288.520325,186.394089 288.722015,201.995850 
	C288.745026,216.363480 288.909058,229.819214 288.726776,243.270264 
	C288.666809,247.693665 289.933624,249.672546 294.637390,249.378418 
	C298.751587,249.121155 302.908813,249.552002 306.976868,250.007172 
	C303.730164,254.809250 298.995880,252.231186 294.619995,252.959335 
	C293.499115,252.955643 292.751862,252.959579 291.680237,252.873352 
	C289.261414,250.507080 287.166962,248.230972 285.072693,245.489044 
	C285.060211,234.683380 285.047516,224.343521 285.039459,213.669067 
	C285.040405,212.888245 285.036713,212.442047 285.040039,211.527496 
	C285.042419,202.374725 285.037750,193.690338 285.038940,184.536484 
	C285.043152,180.240479 285.172180,176.408295 285.008148,172.588715 
	C284.782074,167.324020 284.334747,162.068848 283.884277,156.482666 
	C283.122742,154.949677 282.459106,153.743607 281.795471,152.537537 
z"/>
<path fill="#280E07" opacity="1.000000" stroke="none" 
	d="
M272.760651,324.259705 
	C280.036224,323.250244 287.397247,322.580872 294.726227,321.657288 
	C296.313019,321.457336 297.784698,320.343689 299.309387,319.650909 
	C298.473969,318.368927 297.754211,316.080383 296.784332,315.968994 
	C290.666779,315.266083 284.455139,314.453613 278.350891,314.850586 
	C273.266418,315.181244 268.346222,311.021576 269.259521,305.786682 
	C269.570282,304.005615 269.852966,302.216003 270.051270,300.419556 
	C270.846497,293.214752 271.806763,286.018799 272.270599,278.791626 
	C272.445648,276.063751 271.700562,273.168182 270.779663,270.559143 
	C270.564148,269.948517 267.743805,269.672821 266.444336,270.140015 
	C262.710785,271.482330 262.853668,274.867737 262.952209,278.096466 
	C262.992767,279.425110 262.962982,280.755920 262.966919,283.010071 
	C262.972321,291.958801 262.976013,299.983185 262.979706,308.007599 
	C262.973511,310.374603 262.967285,312.741638 262.966248,315.551880 
	C262.603088,316.611877 262.234741,317.228638 261.615601,317.959442 
	C261.341522,302.686127 261.344116,287.298584 261.271881,271.911438 
	C261.258545,269.071716 262.624512,268.143982 265.258514,268.209442 
	C270.389038,268.336975 275.522552,268.344147 281.014160,268.669678 
	C278.656433,274.723907 274.904327,280.271057 273.501038,286.359589 
	C271.965912,293.020355 272.708282,300.188538 272.250549,307.121887 
	C271.986053,311.128235 273.736084,312.245880 277.504150,312.159393 
	C285.617798,311.973267 293.739563,312.141907 301.858002,312.165375 
	C301.858002,312.165375 301.973633,311.998749 301.973785,312.526489 
	C302.087067,314.701660 302.285339,316.348389 302.298492,317.996613 
	C302.352631,324.785065 302.331848,324.767761 295.362396,324.807617 
	C287.914917,324.850189 280.467621,324.930145 273.020264,324.993805 
	C272.958374,324.832062 272.896484,324.670349 272.760651,324.259705 
z"/>
<path fill="#280E07" opacity="1.000000" stroke="none" 
	d="
M307.047028,249.678864 
	C302.908813,249.552002 298.751587,249.121155 294.637390,249.378418 
	C289.933624,249.672546 288.666809,247.693665 288.726776,243.270264 
	C288.909058,229.819214 288.745026,216.363480 288.835632,202.452652 
	C289.143311,201.984985 289.331268,201.974213 289.802429,201.969421 
	C290.366882,209.083588 290.731750,216.189758 290.902954,223.300613 
	C291.038849,228.943481 291.075653,234.596558 290.892487,240.236511 
	C290.773651,243.895462 292.589294,246.089615 295.788788,246.688446 
	C299.076721,247.303787 302.918030,248.307938 305.003052,244.143112 
	C306.782471,240.588638 308.667267,237.056290 310.066681,233.348557 
	C313.065399,225.403152 318.557587,220.635178 326.835632,218.751785 
	C328.519562,218.368652 329.928711,216.777817 331.464539,215.743744 
	C329.826630,214.113663 328.387726,211.429749 326.509003,211.074921 
	C322.708832,210.357269 318.670105,210.903046 314.500793,210.610764 
	C316.788086,209.326675 319.304352,208.359650 322.060394,207.549683 
	C323.192078,207.835739 324.084015,207.964752 325.329041,208.201782 
	C329.758728,209.486145 333.835327,210.662476 337.911926,211.838806 
	C340.560547,217.477371 345.512054,215.082489 349.939453,215.603577 
	C344.387024,217.252426 338.686951,219.044083 332.860779,219.679184 
	C323.837616,220.662796 316.914795,224.753464 313.087555,232.738449 
	C310.723694,237.670349 310.047363,243.411133 308.325348,248.884888 
	C307.707184,249.213638 307.377106,249.446259 307.047028,249.678864 
z"/>
<path fill="#D3763C" opacity="1.000000" stroke="none" 
	d="
M272.980896,325.407318 
	C280.467621,324.930145 287.914917,324.850189 295.362396,324.807617 
	C302.331848,324.767761 302.352631,324.785065 302.298492,317.996613 
	C302.285339,316.348389 302.087067,314.701660 301.910034,312.606201 
	C306.182892,312.037109 305.822388,315.167877 305.957184,318.022736 
	C306.150726,322.122284 305.678772,326.173126 300.809814,326.869385 
	C295.259033,327.663147 289.576416,327.489349 283.977020,328.013245 
	C282.037933,328.194641 280.176483,329.205811 278.279572,329.837952 
	C279.260345,331.800232 279.846313,334.133942 281.286163,335.664276 
	C290.403107,345.353912 300.665436,342.669159 311.412964,338.247131 
	C311.818970,338.607513 311.832886,338.782196 311.846771,338.956879 
	C302.269379,345.288788 292.493500,345.584778 282.267426,340.385773 
	C276.153320,337.277374 273.149567,332.533356 272.980896,325.407318 
z"/>
<path fill="#D8783E" opacity="1.000000" stroke="none" 
	d="
M308.613464,248.788773 
	C310.047363,243.411133 310.723694,237.670349 313.087555,232.738449 
	C316.914795,224.753464 323.837616,220.662796 332.860779,219.679184 
	C338.686951,219.044083 344.387024,217.252426 350.366028,215.688629 
	C351.612518,214.740036 352.636597,214.081879 354.052124,213.106430 
	C354.767670,212.621628 354.931000,212.355484 354.933563,211.990692 
	C359.906738,212.182724 356.828491,216.081055 357.699493,218.839142 
	C357.452789,220.365250 357.267639,221.185303 356.734070,221.926498 
	C353.300232,219.240189 349.989868,219.046570 346.200836,220.334747 
	C343.405396,221.285126 340.296143,221.277145 337.441589,222.096420 
	C331.514954,223.797394 324.377319,222.765427 320.182831,228.534409 
	C317.379852,232.389526 315.380859,236.829224 313.010437,241.404175 
	C312.986847,242.859756 312.974915,243.918457 312.759583,245.250549 
	C311.241943,246.612198 309.927704,247.700485 308.613464,248.788773 
z"/>
<path fill="#D3763C" opacity="1.000000" stroke="none" 
	d="
M320.246216,189.073074 
	C321.039001,187.076874 321.721863,185.028000 322.647766,183.095581 
	C324.498871,179.232254 327.583374,177.047485 331.881866,178.166534 
	C336.195587,179.289566 334.814636,183.059357 334.451172,186.669128 
	C329.070770,190.593674 324.024780,193.930618 319.062500,196.848480 
	C319.512878,193.977295 319.879547,191.525192 320.246216,189.073074 
z"/>
<path fill="#220906" opacity="1.000000" stroke="none" 
	d="
M195.358398,275.107788 
	C202.546692,275.125793 204.554962,277.256500 207.083527,285.716614 
	C208.754898,291.308746 204.363800,293.132050 201.342178,295.504578 
	C197.850906,298.245819 190.808640,297.542755 188.234055,293.487244 
	C186.349686,290.518982 186.116730,285.974335 186.462036,282.254303 
	C186.879623,277.755829 190.658264,275.797852 195.358398,275.107788 
M198.055313,293.848175 
	C202.814468,292.522919 204.915161,289.326263 204.201050,284.517487 
	C203.618866,280.597168 201.154205,278.357758 197.139923,278.034088 
	C192.232803,277.638458 188.569183,280.627930 188.160278,285.298096 
	C187.709137,290.450684 190.890900,293.472076 198.055313,293.848175 
z"/>
<path fill="#41180C" opacity="1.000000" stroke="none" 
	d="
M318.978790,197.267578 
	C324.024780,193.930618 329.070770,190.593674 334.396851,187.095734 
	C336.055939,189.022614 337.434937,191.110504 338.478638,193.548828 
	C334.916321,193.899246 331.689331,193.899246 328.462311,193.899246 
	C328.408020,194.541138 328.353729,195.183029 328.299408,195.824921 
	C331.227234,197.026199 334.155060,198.227463 337.082886,199.428726 
	C336.041901,201.065689 335.000916,202.702637 333.529236,204.782715 
	C331.070618,205.362213 329.042694,205.498581 326.921326,205.172684 
	C326.744781,204.407669 326.661713,204.104904 326.682800,203.424988 
	C325.808472,197.522552 321.932709,200.667130 319.118683,200.095184 
	C319.042145,198.882584 319.010468,198.075089 318.978790,197.267578 
z"/>
<path fill="#280E07" opacity="1.000000" stroke="none" 
	d="
M319.062500,196.848495 
	C319.010468,198.075089 319.042145,198.882584 318.899200,200.318756 
	C316.606873,203.197586 314.341827,205.334976 312.473694,207.776123 
	C311.998505,208.397079 312.784180,209.982910 312.990540,211.125427 
	C311.542816,211.714630 310.095123,212.303802 308.300354,212.545929 
	C307.921143,211.751450 307.889008,211.304031 307.862366,210.420929 
	C307.967987,207.657104 308.068085,205.328934 308.428589,202.951050 
	C309.120453,202.610428 309.551941,202.319519 310.252228,201.822021 
	C312.366821,197.404404 314.212646,193.193359 316.058441,188.982315 
	C317.174896,189.003281 318.291321,189.024261 319.826996,189.059158 
	C319.879547,191.525192 319.512878,193.977295 319.062500,196.848495 
z"/>
<path fill="#C4713F" opacity="1.000000" stroke="none" 
	d="
M308.168152,203.000778 
	C308.068085,205.328934 307.967987,207.657104 307.523254,210.494598 
	C306.492523,210.965012 305.806458,210.926056 305.120361,210.887115 
	C302.489655,207.744110 299.858917,204.601105 296.966461,201.230865 
	C296.850281,199.424454 296.995789,197.845245 297.656494,195.843811 
	C304.443207,194.071152 305.905640,199.063614 308.168152,203.000778 
z"/>
<path fill="#D8783E" opacity="1.000000" stroke="none" 
	d="
M320.434204,267.790955 
	C320.528595,266.942200 321.083374,266.194824 322.202515,265.235199 
	C323.509399,265.011292 324.251923,264.999603 325.452942,264.998535 
	C329.275970,265.002472 332.640472,264.995789 336.448547,264.996307 
	C339.259796,265.001923 341.627441,265.000366 344.438416,265.007751 
	C349.644562,265.810272 353.652527,264.333435 357.175690,261.394043 
	C357.342438,263.565918 357.368561,265.319427 357.394653,267.072906 
	C352.653137,267.348206 347.914398,267.778381 343.169464,267.863098 
	C335.746704,267.995605 328.319763,267.894501 320.434204,267.790955 
z"/>
<path fill="#D3763C" opacity="1.000000" stroke="none" 
	d="
M281.496826,152.615723 
	C282.459106,153.743607 283.122742,154.949677 283.509888,156.530975 
	C279.327576,157.070328 278.018524,159.887802 276.984863,163.432892 
	C276.643616,168.238998 276.319977,172.616837 275.985107,177.393646 
	C275.636993,179.853058 275.300140,181.913513 274.969788,183.982254 
	C274.976227,183.990540 274.963074,183.958801 274.537781,183.918472 
	C273.547546,183.807755 272.982605,183.737381 272.417633,183.667007 
	C272.586212,177.755157 272.754761,171.843323 273.177063,165.177231 
	C273.495575,163.504166 273.560333,162.585342 273.625122,161.666519 
	C274.933868,159.593414 276.242584,157.520309 278.099854,155.211823 
	C279.158875,154.447174 279.669312,153.917908 280.179718,153.388641 
	C280.519196,153.157059 280.858704,152.925476 281.496826,152.615723 
z"/>
<path fill="#280E07" opacity="1.000000" stroke="none" 
	d="
M357.696838,266.858093 
	C357.368561,265.319427 357.342438,263.565918 357.284119,260.938904 
	C357.199615,248.710068 357.147308,237.354752 357.221710,225.673126 
	C357.261597,224.896408 357.174774,224.445984 357.180969,223.667908 
	C357.210144,222.895264 357.146301,222.450317 357.082489,222.005356 
	C357.267639,221.185303 357.452789,220.365250 357.774933,219.258453 
	C358.252136,220.390442 358.879517,221.807480 358.887726,223.228073 
	C358.963898,236.447632 358.958679,249.667938 358.893341,262.887604 
	C358.887146,264.140930 358.310730,265.391449 357.696838,266.858093 
z"/>
<path fill="#280E07" opacity="1.000000" stroke="none" 
	d="
M318.020782,280.002594 
	C318.020782,280.002594 318.322510,279.722839 318.510620,279.639526 
	C319.071136,280.820618 319.759308,282.083038 319.767395,283.349762 
	C319.851349,296.466827 319.834534,309.584564 319.802887,322.702026 
	C319.801392,323.323090 319.397430,323.943146 318.926025,324.821411 
	C318.502441,313.694855 318.333679,302.310547 318.225739,290.024872 
	C318.197998,286.083191 318.109406,283.042877 318.020782,280.002594 
z"/>
<path fill="#C4713F" opacity="1.000000" stroke="none" 
	d="
M315.794312,188.759521 
	C314.212646,193.193359 312.366821,197.404404 310.151306,201.449646 
	C309.237366,197.532181 308.693115,193.780533 308.348053,189.808243 
	C308.960205,188.914597 309.373169,188.241592 309.786133,187.568573 
	C311.700806,187.891296 313.615479,188.214020 315.794312,188.759521 
z"/>
<path fill="#80462C" opacity="1.000000" stroke="none" 
	d="
M288.278992,156.673080 
	C285.969818,155.277588 289.377655,150.459869 284.025879,150.313568 
	C281.672943,149.035324 279.673889,147.752640 276.866089,145.951035 
	C277.294434,145.513794 278.420868,143.480072 279.975342,143.070297 
	C281.119537,142.768707 282.996796,144.395584 284.244080,145.504318 
	C287.448853,148.353043 290.152679,151.519318 288.278992,156.673080 
z"/>
<path fill="#41180C" opacity="1.000000" stroke="none" 
	d="
M308.148865,190.028900 
	C308.693115,193.780533 309.237366,197.532181 309.882507,201.656219 
	C309.551941,202.319519 309.120453,202.610428 308.428589,202.951050 
	C305.905640,199.063614 304.443207,194.071152 297.802124,195.471008 
	C297.622620,193.854523 297.812622,192.188614 298.488953,190.278381 
	C300.279510,191.006516 301.538300,192.048782 302.898529,192.935410 
	C305.058197,194.343155 305.823486,193.288773 306.127502,190.975266 
	C306.991730,190.563339 307.570312,190.296112 308.148865,190.028900 
z"/>
<path fill="#C4713F" opacity="1.000000" stroke="none" 
	d="
M327.014771,205.634949 
	C329.042694,205.498581 331.070618,205.362213 333.530762,205.153366 
	C334.098907,205.178391 334.234833,205.275864 334.704681,205.756104 
	C335.671234,206.439713 336.303925,206.740555 336.936584,207.041382 
	C337.331146,208.397339 337.725739,209.753296 338.016113,211.474030 
	C333.835327,210.662476 329.758728,209.486145 325.514008,208.001892 
	C325.902161,207.007645 326.458466,206.321304 327.014771,205.634949 
z"/>
<path fill="#80462C" opacity="1.000000" stroke="none" 
	d="
M305.841888,191.119980 
	C305.823486,193.288773 305.058197,194.343155 302.898529,192.935410 
	C301.538300,192.048782 300.279510,191.006516 298.682281,189.891418 
	C298.415863,184.737244 299.159027,184.265808 303.852844,187.019989 
	C304.676910,188.775848 305.259399,189.947922 305.841888,191.119980 
z"/>
<path fill="#C4713F" opacity="1.000000" stroke="none" 
	d="
M337.463989,199.337860 
	C334.155060,198.227463 331.227234,197.026199 328.299408,195.824921 
	C328.353729,195.183029 328.408020,194.541138 328.462311,193.899246 
	C331.689331,193.899246 334.916321,193.899246 338.594360,193.868408 
	C340.810791,196.121216 341.150909,198.088623 337.463989,199.337860 
z"/>
<path fill="#F58133" opacity="1.000000" stroke="none" 
	d="
M272.201599,183.782623 
	C272.982605,183.737381 273.547546,183.807755 274.518768,184.283508 
	C274.194305,188.607651 271.431549,190.223587 267.860046,190.923019 
	C268.803528,189.299271 269.747040,187.675507 270.675598,185.684601 
	C271.102325,184.844360 271.543945,184.371307 272.201599,183.782623 
z"/>
<path fill="#280E07" opacity="1.000000" stroke="none" 
	d="
M306.127502,190.975266 
	C305.259399,189.947922 304.676910,188.775848 304.105255,187.272690 
	C305.693939,187.074387 307.271820,187.207184 309.317902,187.454285 
	C309.373169,188.241592 308.960205,188.914597 308.348053,189.808258 
	C307.570312,190.296112 306.991730,190.563339 306.127502,190.975266 
z"/>
<path fill="#280E07" opacity="1.000000" stroke="none" 
	d="
M315.426086,334.911041 
	C315.831512,333.399933 316.565308,331.779358 317.613678,330.014771 
	C317.203644,331.514343 316.479065,333.157928 315.426086,334.911041 
z"/>
<path fill="#280E07" opacity="1.000000" stroke="none" 
	d="
M312.192078,338.903015 
	C311.832886,338.782196 311.818970,338.607513 311.759430,338.173401 
	C312.617493,337.032654 313.521210,336.151337 314.729614,335.188843 
	C314.202026,336.354828 313.369690,337.601990 312.192078,338.903015 
z"/>
<path fill="#80462C" opacity="1.000000" stroke="none" 
	d="
M273.411957,161.827530 
	C273.560333,162.585342 273.495575,163.504166 273.223755,164.711090 
	C273.077393,163.995636 273.138092,162.992081 273.411957,161.827530 
z"/>
<path fill="#80462C" opacity="1.000000" stroke="none" 
	d="
M279.890411,153.414322 
	C279.669312,153.917908 279.158875,154.447174 278.363098,155.006653 
	C278.585510,154.504593 279.093292,153.972305 279.890411,153.414322 
z"/>
<path fill="#80462C" opacity="1.000000" stroke="none" 
	d="
M336.844238,206.768127 
	C336.303925,206.740555 335.671234,206.439713 334.908264,205.902771 
	C335.435944,205.942734 336.093933,206.218811 336.844238,206.768127 
z"/>
<path fill="#280E07" opacity="1.000000" stroke="none" 
	d="
M354.716003,212.069427 
	C354.931000,212.355484 354.767670,212.621628 354.203186,212.835693 
	C354.045441,212.567566 354.223999,212.322876 354.716003,212.069427 
z"/>
<path fill="#F8802F" opacity="1.000000" stroke="none" 
	d="
M267.560425,190.914276 
	C271.431549,190.223587 274.194305,188.607651 274.944031,184.323822 
	C274.963074,183.958801 274.976227,183.990540 275.318054,183.885742 
	C278.774933,181.667725 279.070068,179.414703 275.996338,176.994675 
	C276.319977,172.616837 276.643616,168.238998 277.337616,163.360336 
	C281.181671,161.609558 282.778137,163.206818 282.891052,166.523224 
	C283.042572,170.974106 282.792114,175.444901 283.093903,179.881317 
	C283.212555,181.625427 284.356201,183.299805 285.033081,185.005936 
	C285.037750,193.690338 285.042419,202.374725 284.809204,211.607941 
	C284.725861,212.772400 284.880341,213.388031 285.034821,214.003677 
	C285.047516,224.343521 285.060211,234.683380 284.910553,245.760620 
	C285.339142,248.314697 285.502350,250.488693 286.639130,251.849365 
	C287.820038,253.262894 289.510071,256.224823 292.004578,252.963501 
	C292.751862,252.959579 293.499115,252.955643 294.795837,253.291138 
	C297.676819,254.203003 299.982971,254.929779 302.344757,255.318466 
	C309.025024,256.417816 313.605835,251.899994 312.962952,244.977158 
	C312.974915,243.918457 312.986847,242.859756 313.365967,241.328339 
	C318.029083,239.326706 318.751221,241.706726 319.116852,245.300430 
	C319.753845,251.561584 322.821106,253.568542 327.348419,250.921936 
	C328.114471,250.938705 328.552185,250.950348 329.165985,251.293976 
	C333.204987,251.492752 337.105865,251.609970 340.901947,251.035263 
	C341.759796,250.905380 342.253204,248.368225 342.917633,246.480164 
	C342.929565,242.045364 342.938232,238.069565 342.924347,233.710236 
	C342.604614,232.388031 342.048737,231.445496 342.062592,230.511429 
	C342.094177,228.387466 341.634125,225.244675 342.780029,224.380463 
	C344.602844,223.005722 347.789337,222.342621 349.982605,222.930984 
	C351.511658,223.341187 353.238403,226.302521 353.336517,228.203766 
	C353.827972,237.725449 353.774719,247.274185 353.990326,256.811646 
	C354.082458,260.889038 352.363953,262.914734 348.150208,263.092896 
	C346.740814,263.152496 345.378784,264.331482 343.995117,264.998779 
	C341.627441,265.000366 339.259796,265.001923 336.263947,264.665894 
	C331.961792,262.501556 328.353668,261.737396 324.994415,264.987915 
	C324.251923,264.999603 323.509399,265.011292 322.396423,265.025146 
	C317.299744,264.248383 314.326202,266.081543 314.144714,270.541809 
	C313.835480,278.141693 314.002960,285.759827 313.886597,293.369049 
	C313.820587,297.684540 313.533020,301.996338 313.447662,306.311859 
	C313.372314,310.119415 312.906586,314.023865 313.559387,317.718384 
	C314.741058,324.406128 313.248657,330.359985 308.273499,334.507599 
	C302.238953,339.538361 294.885254,340.220917 287.564392,337.086884 
	C285.801300,336.332123 284.508545,334.478577 282.999512,333.130310 
	C283.158203,332.673431 283.316925,332.216583 283.475616,331.759735 
	C285.310577,331.506805 287.139923,331.198059 288.981689,331.012756 
	C292.609070,330.647919 296.332947,330.745178 299.855530,329.942810 
	C306.652191,328.394775 309.620087,323.549622 308.961639,316.035828 
	C308.556152,311.408722 303.395111,307.292694 297.436401,307.050354 
	C293.611633,306.894806 289.732574,307.357941 285.958557,306.891235 
	C282.792694,306.499786 279.743652,305.163696 276.298218,303.679993 
	C275.955780,300.745361 275.957977,298.376526 276.282166,295.845673 
	C276.702759,293.436096 276.801361,291.188599 276.899231,288.533081 
	C277.238373,286.070221 277.578278,284.015350 278.262573,281.888855 
	C280.378357,279.160889 282.149811,276.504608 283.919830,273.541321 
	C283.938324,272.825592 283.958252,272.416840 284.289917,271.857758 
	C287.414703,267.956665 285.376526,266.206268 281.862488,265.064392 
	C281.450562,265.060852 281.038605,265.057343 280.190460,264.735046 
	C277.597565,262.292053 275.523956,260.986420 273.990234,265.001160 
	C269.513458,265.477753 265.036652,265.954315 260.013000,266.820923 
	C258.999451,267.852722 258.532806,268.494476 258.066132,269.136230 
	C258.062592,270.808258 258.059082,272.480316 257.704895,274.757690 
	C255.512695,280.340759 254.490616,285.280853 258.027405,290.011414 
	C258.034576,290.755707 258.041779,291.500031 257.698700,292.804871 
	C256.899231,295.217102 256.090027,297.063354 256.061951,298.921417 
	C255.926666,307.869659 256.059235,316.821533 255.985245,325.771210 
	C255.921555,333.476044 255.234573,333.879517 247.976578,330.996857 
	C247.970810,326.975250 247.965027,322.953613 248.306946,318.281647 
	C248.836914,310.034973 249.032211,302.438873 249.149353,294.841553 
	C249.153625,294.564728 248.390671,294.276031 247.985291,293.992859 
	C247.976440,292.608124 247.967590,291.223358 248.305511,289.235718 
	C248.834244,282.421143 249.211716,276.203094 249.007660,270.004150 
	C248.973251,268.958710 246.429749,267.995880 245.045547,266.994873 
	C245.045547,266.994873 244.998489,266.537048 244.859482,265.963318 
	C241.930588,262.450867 239.048416,261.677856 235.990952,265.017578 
	C234.281723,265.020508 232.572510,265.023438 230.327026,264.746338 
	C228.857407,264.645416 227.924042,264.824524 226.990692,265.003662 
	C224.296234,265.010071 221.601761,265.016479 218.276520,264.684265 
	C214.286011,262.498535 210.998077,261.700500 207.990997,265.006317 
	C202.616211,264.765076 197.241425,264.523834 191.178650,263.985718 
	C186.881134,263.659851 183.073242,262.915497 179.728882,263.842834 
	C177.333298,264.507080 174.247299,267.142395 173.792740,269.371948 
	C172.969711,273.409149 173.880936,277.799957 174.068115,282.043121 
	C172.258621,284.258362 170.449112,286.473572 167.955688,288.864197 
	C164.847244,290.025269 162.422745,291.010986 159.998230,291.996674 
	C157.124924,290.870789 154.251617,289.744904 151.183868,287.940491 
	C151.661560,284.835785 152.333694,282.409576 153.005829,279.983337 
	C154.707932,279.968658 156.410034,279.953949 158.812958,280.128357 
	C161.839478,279.179779 165.873474,278.327148 166.121185,276.842712 
	C166.580887,274.087860 164.829880,270.964050 163.999390,267.993896 
	C163.995911,266.608246 163.992432,265.222626 164.329712,263.234863 
	C166.522369,258.637756 167.386734,254.698029 164.019470,250.995010 
	C165.406158,248.034668 166.792847,245.074310 168.908600,242.073395 
	C170.854538,243.727814 172.602890,245.257751 173.190002,247.148315 
	C175.052826,253.146713 178.715118,256.483093 184.202484,255.734406 
	C187.228500,255.321533 190.113480,253.875000 193.062042,252.894470 
	C193.781036,252.892273 194.500015,252.890076 195.870758,253.099579 
	C198.674164,252.521606 200.825806,251.731949 202.977463,250.942291 
	C203.148514,250.688492 203.348175,250.459671 204.113068,250.017914 
	C208.165161,247.679337 207.259964,244.853394 205.932953,241.958252 
	C205.939087,239.930649 205.945221,237.903046 206.285583,235.272766 
	C207.389923,231.734421 208.160049,228.798767 208.930176,225.863113 
	C209.750900,224.995941 210.571625,224.128769 212.015503,223.108246 
	C213.761444,222.288284 214.884262,221.621643 216.007065,220.955017 
	C216.741486,220.939087 217.475891,220.923141 218.814453,221.086731 
	C220.281769,220.839127 221.144928,220.411987 222.008072,219.984863 
	C223.705383,219.963409 225.402695,219.941971 227.811890,220.122864 
	C233.701492,220.522400 235.731323,217.246124 234.943146,209.963867 
	C235.152634,209.444839 235.362122,208.925812 236.081818,208.077576 
	C237.382507,206.155273 238.172958,204.562210 238.963409,202.969147 
	C238.963425,202.969147 238.988876,202.993576 239.310959,202.906097 
	C240.474915,202.305038 241.614792,201.989441 242.109314,201.245087 
	C244.891632,197.057251 248.527954,194.153061 253.429321,192.809006 
	C254.071228,192.632965 254.485458,191.626602 255.005127,191.004791 
	C256.705688,190.980865 258.406219,190.956940 260.817688,191.134003 
	C263.038300,191.190857 264.547974,191.046738 266.057678,190.902618 
	C266.458710,190.903580 266.859741,190.904556 267.560425,190.914276 
M272.888184,248.908142 
	C275.639923,245.089249 275.701477,238.785172 273.022461,235.159683 
	C270.202423,231.343353 265.272858,231.155869 261.097137,235.103653 
	C260.153900,237.357376 258.257385,239.716553 258.492218,241.839996 
	C258.839447,244.979416 259.889740,248.975250 262.118530,250.741287 
	C265.054291,253.067474 269.300934,252.842133 272.888184,248.908142 
M288.384186,282.190765 
	C283.125946,286.599945 283.782043,296.469208 289.845856,298.821472 
	C292.411774,299.816833 295.685974,299.057098 298.635101,298.978149 
	C303.767548,298.840759 307.403656,295.547760 307.890961,290.475922 
	C308.112427,288.170532 308.060272,285.824677 307.955597,283.505157 
	C307.745026,278.838898 303.637878,273.757172 299.880585,273.359009 
	C295.663879,272.912109 290.804810,276.498749 289.135010,281.631012 
	C289.135010,281.631012 289.095490,281.999664 288.384186,282.190765 
M244.142700,248.605011 
	C245.128601,244.326035 246.114502,240.047073 247.290024,234.945114 
	C241.733047,234.945114 236.496399,234.944519 231.259735,234.945267 
	C220.740112,234.946777 220.276001,235.354477 221.650146,245.803894 
	C221.825043,247.133881 223.863022,249.193665 225.104965,249.243530 
	C231.202744,249.488327 237.323212,249.168076 244.142700,248.605011 
M247.499313,204.055374 
	C240.497055,213.228928 241.262329,218.989182 252.647949,220.603668 
	C257.346130,221.269882 262.592133,221.573624 264.198975,216.536743 
	C265.654846,211.973221 265.320007,206.563751 264.545410,201.724014 
	C264.300232,200.192276 259.817871,197.970535 257.766968,198.402466 
	C254.309143,199.130722 251.244415,201.725525 247.499313,204.055374 
z"/>
<path fill="#F58133" opacity="1.000000" stroke="none" 
	d="
M192.741669,252.726151 
	C190.113480,253.875000 187.228500,255.321533 184.202484,255.734406 
	C178.715118,256.483093 175.052826,253.146713 173.190002,247.148315 
	C172.602890,245.257751 170.854538,243.727814 169.249634,241.975449 
	C170.073135,241.026520 171.190231,239.797546 172.545105,239.418518 
	C173.049072,239.277527 174.546600,241.004303 174.847977,242.086349 
	C177.539932,251.751282 180.339844,253.644791 190.466583,252.384644 
	C191.101135,252.305679 191.768951,252.493927 192.741669,252.726151 
z"/>
<path fill="#F58133" opacity="1.000000" stroke="none" 
	d="
M174.269150,281.685913 
	C173.880936,277.799957 172.969711,273.409149 173.792740,269.371948 
	C174.247299,267.142395 177.333298,264.507080 179.728882,263.842834 
	C183.073242,262.915497 186.881134,263.659851 190.776733,263.896240 
	C189.134979,264.416718 187.214706,264.934753 185.277985,265.006042 
	C178.307373,265.262665 175.194000,268.414368 175.036697,275.458282 
	C174.992935,277.418335 174.666794,279.372101 174.269150,281.685913 
z"/>
<path fill="#F58133" opacity="1.000000" stroke="none" 
	d="
M245.062744,267.223206 
	C246.429749,267.995880 248.973251,268.958710 249.007660,270.004150 
	C249.211716,276.203094 248.834244,282.421143 248.311798,288.820312 
	C247.638382,284.384308 247.390106,279.752472 246.936172,275.140839 
	C246.714890,272.892822 246.109940,270.682587 245.410126,268.180298 
	C245.141602,267.905334 245.079926,267.451538 245.062744,267.223206 
z"/>
<path fill="#F58133" opacity="1.000000" stroke="none" 
	d="
M163.989014,268.425903 
	C164.829880,270.964050 166.580887,274.087860 166.121185,276.842712 
	C165.873474,278.327148 161.839478,279.179779 159.238297,280.130463 
	C163.270660,277.440918 164.571823,273.577972 163.989014,268.425903 
z"/>
<path fill="#F58133" opacity="1.000000" stroke="none" 
	d="
M254.622284,191.025482 
	C254.485458,191.626602 254.071228,192.632965 253.429321,192.809006 
	C248.527954,194.153061 244.891632,197.057251 242.109314,201.245087 
	C241.614792,201.989441 240.474915,202.305038 239.294830,202.891418 
	C242.018738,196.385635 246.837906,192.060165 254.622284,191.025482 
z"/>
<path fill="#F58133" opacity="1.000000" stroke="none" 
	d="
M152.611206,279.978333 
	C152.333694,282.409576 151.661560,284.835785 150.977631,287.662598 
	C150.571320,287.785217 150.047684,287.590759 149.804581,287.214905 
	C148.743362,285.574005 147.763611,283.880463 146.754272,282.206055 
	C148.575043,281.461792 150.395813,280.717560 152.611206,279.978333 
z"/>
<path fill="#F58133" opacity="1.000000" stroke="none" 
	d="
M234.735779,210.255280 
	C235.731323,217.246124 233.701492,220.522400 228.235992,220.123779 
	C232.108612,218.177628 233.210541,214.286392 234.735779,210.255280 
z"/>
<path fill="#F58133" opacity="1.000000" stroke="none" 
	d="
M164.004578,251.455902 
	C167.386734,254.698029 166.522369,258.637756 164.338867,262.819214 
	C164.001404,259.309418 163.995544,255.613098 164.004578,251.455902 
z"/>
<path fill="#F58133" opacity="1.000000" stroke="none" 
	d="
M208.446075,265.017792 
	C210.998077,261.700500 214.286011,262.498535 217.827545,264.674622 
	C214.973297,265.012207 211.937210,265.020721 208.446075,265.017792 
z"/>
<path fill="#F58133" opacity="1.000000" stroke="none" 
	d="
M208.601105,226.026840 
	C208.160049,228.798767 207.389923,231.734421 206.293915,234.838120 
	C206.736038,232.067627 207.504028,229.129105 208.601105,226.026840 
z"/>
<path fill="#F58133" opacity="1.000000" stroke="none" 
	d="
M236.416077,265.027954 
	C239.048416,261.677856 241.930588,262.450867 244.845612,265.733643 
	C242.260895,265.731232 239.551056,265.384796 236.416077,265.027954 
z"/>
<path fill="#F58133" opacity="1.000000" stroke="none" 
	d="
M205.743134,242.279160 
	C207.259964,244.853394 208.165161,247.679337 204.292999,249.877502 
	C204.475296,247.516678 205.014313,245.058380 205.743134,242.279160 
z"/>
<path fill="#F58133" opacity="1.000000" stroke="none" 
	d="
M160.386002,291.998169 
	C162.422745,291.010986 164.847244,290.025269 167.676941,289.041718 
	C165.645996,290.029114 163.209885,291.014374 160.386002,291.998169 
z"/>
<path fill="#F58133" opacity="1.000000" stroke="none" 
	d="
M202.614319,251.024551 
	C200.825806,251.731949 198.674164,252.521606 196.230225,253.106445 
	C198.042328,252.303345 200.146759,251.705093 202.614319,251.024551 
z"/>
<path fill="#F58133" opacity="1.000000" stroke="none" 
	d="
M265.764313,190.725311 
	C264.547974,191.046738 263.038300,191.190857 261.242645,191.133850 
	C262.461456,190.804459 263.966187,190.676224 265.764313,190.725311 
z"/>
<path fill="#F58133" opacity="1.000000" stroke="none" 
	d="
M238.692474,203.159576 
	C238.172958,204.562210 237.382507,206.155273 236.264328,207.862244 
	C236.764923,206.434097 237.593231,204.892059 238.692474,203.159576 
z"/>
<path fill="#F58133" opacity="1.000000" stroke="none" 
	d="
M215.664001,220.975250 
	C214.884262,221.621643 213.761444,222.288284 212.271576,222.950638 
	C213.043304,222.296066 214.182114,221.645782 215.664001,220.975250 
z"/>
<path fill="#F58133" opacity="1.000000" stroke="none" 
	d="
M221.680969,219.999146 
	C221.144928,220.411987 220.281769,220.839127 219.181763,221.089264 
	C219.747879,220.612671 220.550858,220.313065 221.680969,219.999146 
z"/>
<path fill="#F58133" opacity="1.000000" stroke="none" 
	d="
M227.367889,265.014740 
	C227.924042,264.824524 228.857407,264.645416 229.899918,264.737274 
	C229.254410,265.014099 228.499756,265.019958 227.367889,265.014740 
z"/>
<path fill="#F8802F" opacity="1.000000" stroke="none" 
	d="
M173.073822,349.755890 
	C170.565155,343.950714 168.403427,338.477509 172.491684,332.027191 
	C173.564407,334.247681 174.851089,336.391968 175.673248,338.701660 
	C179.456024,349.328644 187.402542,353.814850 199.845062,351.779266 
	C205.576614,350.841614 213.906296,344.165985 213.923279,332.845886 
	C213.932449,326.722198 213.893372,320.597900 213.972244,314.475098 
	C214.021637,310.638336 219.802338,304.854065 223.423218,305.515961 
	C224.798264,305.767303 226.804565,308.127655 226.795059,309.514923 
	C226.715805,321.091156 229.034729,332.976013 224.611984,344.118469 
	C220.733154,353.890656 212.957687,359.658539 202.576416,361.626892 
	C191.733368,363.682831 178.199570,358.311432 173.073822,349.755890 
z"/>
<path fill="#C4713F" opacity="1.000000" stroke="none" 
	d="
M313.196899,211.040955 
	C312.784180,209.982910 311.998505,208.397079 312.473694,207.776123 
	C314.341827,205.334976 316.606873,203.197586 318.944061,200.723846 
	C321.932709,200.667130 325.808472,197.522552 326.407166,203.551270 
	C324.625092,205.167343 323.222870,206.279984 321.820618,207.392624 
	C319.304352,208.359650 316.788086,209.326675 314.056396,210.582245 
	C313.840973,210.870804 313.403290,210.956482 313.196899,211.040955 
z"/>
<path fill="#41180C" opacity="1.000000" stroke="none" 
	d="
M305.095947,211.183868 
	C305.806458,210.926056 306.492523,210.965012 307.517731,210.930283 
	C307.889008,211.304031 307.921143,211.751450 307.940552,212.534683 
	C306.975739,212.407211 306.023621,211.943909 305.095947,211.183868 
z"/>
<path fill="#D3763C" opacity="1.000000" stroke="none" 
	d="
M275.960205,296.007721 
	C275.957977,298.376526 275.955780,300.745361 275.957703,303.558167 
	C276.111206,307.835419 278.473846,308.933777 281.894592,309.070557 
	C287.148376,309.280701 292.400848,309.618195 297.638336,310.078278 
	C298.993347,310.197327 300.290588,310.974060 301.736176,311.807007 
	C293.739563,312.141907 285.617798,311.973267 277.504150,312.159393 
	C273.736084,312.245880 271.986053,311.128235 272.250549,307.121887 
	C272.708282,300.188538 271.965912,293.020355 273.501038,286.359589 
	C274.904327,280.271057 278.656433,274.723907 281.452637,268.641418 
	C281.531860,268.344635 281.872314,268.084351 282.314270,268.147491 
	C283.163513,269.476440 283.570862,270.742279 283.978180,272.008087 
	C283.958252,272.416840 283.938324,272.825592 283.596893,273.658508 
	C281.489624,276.708618 279.703888,279.334564 277.918182,281.960510 
	C277.578278,284.015350 277.238373,286.070221 276.709290,288.875916 
	C276.333466,291.753754 276.146820,293.880737 275.960205,296.007721 
z"/>
<path fill="#C4713F" opacity="1.000000" stroke="none" 
	d="
M317.703522,280.134521 
	C318.109406,283.042877 318.197998,286.083191 318.150391,289.561218 
	C315.279449,286.917694 315.487457,283.646606 317.703522,280.134521 
z"/>
<path fill="#C4713F" opacity="1.000000" stroke="none" 
	d="
M316.502136,274.487427 
	C316.528534,274.477692 316.475739,274.497192 316.502136,274.487427 
z"/>
<path fill="#F58133" opacity="1.000000" stroke="none" 
	d="
M248.063751,331.351135 
	C255.234573,333.879517 255.921555,333.476044 255.985245,325.771210 
	C256.059235,316.821533 255.926666,307.869659 256.061951,298.921417 
	C256.090027,297.063354 256.899231,295.217102 257.688721,293.176941 
	C258.028290,304.904205 258.187622,316.824188 257.872833,328.731598 
	C257.818939,330.770691 256.052185,334.061737 254.517883,334.426941 
	C252.713745,334.856445 250.300201,332.725830 248.063751,331.351135 
z"/>
<path fill="#F58133" opacity="1.000000" stroke="none" 
	d="
M247.976196,294.462280 
	C248.390671,294.276031 249.153625,294.564728 249.149353,294.841553 
	C249.032211,302.438873 248.836914,310.034973 248.314667,317.818970 
	C247.972168,310.314972 247.969635,302.623352 247.976196,294.462280 
z"/>
<path fill="#F58133" opacity="1.000000" stroke="none" 
	d="
M258.037933,289.544006 
	C254.490616,285.280853 255.512695,280.340759 257.694641,275.175781 
	C258.039520,279.684540 258.044006,284.380585 258.037933,289.544006 
z"/>
<path fill="#F58133" opacity="1.000000" stroke="none" 
	d="
M284.289917,271.857758 
	C283.570862,270.742279 283.163513,269.476440 282.482544,268.014862 
	C282.115692,267.131348 282.022491,266.443573 281.895874,265.410095 
	C285.376526,266.206268 287.414703,267.956665 284.289917,271.857758 
z"/>
<path fill="#F58133" opacity="1.000000" stroke="none" 
	d="
M274.419983,265.014069 
	C275.523956,260.986420 277.597565,262.292053 279.881897,264.718689 
	C278.289612,265.023071 276.569641,265.025024 274.419983,265.014069 
z"/>
<path fill="#F58133" opacity="1.000000" stroke="none" 
	d="
M258.344482,269.009094 
	C258.532806,268.494476 258.999451,267.852722 259.758057,267.102142 
	C259.574280,267.622864 259.098541,268.252380 258.344482,269.009094 
z"/>
<path fill="#000000" opacity="1.000000" stroke="none" 
	d="
M263.310699,307.876282 
	C262.976013,299.983185 262.972321,291.958801 262.975708,283.465363 
	C264.264038,283.783539 266.635803,284.547119 266.653412,285.361633 
	C266.789429,291.651428 266.602936,297.960114 266.176300,304.239868 
	C266.093384,305.459991 264.524902,306.579163 263.310699,307.876282 
z"/>
<path fill="#F58133" opacity="1.000000" stroke="none" 
	d="
M285.038940,184.536484 
	C284.356201,183.299805 283.212555,181.625427 283.093903,179.881317 
	C282.792114,175.444901 283.042572,170.974106 282.891052,166.523224 
	C282.778137,163.206818 281.181671,161.609558 277.355225,162.932068 
	C278.018524,159.887802 279.327576,157.070328 283.607819,156.857880 
	C284.334747,162.068848 284.782074,167.324020 285.008148,172.588715 
	C285.172180,176.408295 285.043152,180.240479 285.038940,184.536484 
z"/>
<path fill="#F58133" opacity="1.000000" stroke="none" 
	d="
M312.759583,245.250549 
	C313.605835,251.899994 309.025024,256.417816 302.344757,255.318466 
	C299.982971,254.929779 297.676819,254.203003 295.169434,253.298767 
	C298.995880,252.231186 303.730164,254.809250 306.976868,250.007172 
	C307.377106,249.446259 307.707184,249.213638 308.325348,248.884888 
	C309.927704,247.700485 311.241943,246.612198 312.759583,245.250549 
z"/>
<path fill="#F58133" opacity="1.000000" stroke="none" 
	d="
M291.680237,252.873352 
	C289.510071,256.224823 287.820038,253.262894 286.639130,251.849365 
	C285.502350,250.488693 285.339142,248.314697 284.910339,246.226440 
	C287.166962,248.230972 289.261414,250.507080 291.680237,252.873352 
z"/>
<path fill="#F58133" opacity="1.000000" stroke="none" 
	d="
M285.039459,213.669067 
	C284.880341,213.388031 284.725861,212.772400 284.802185,212.076309 
	C285.036713,212.442047 285.040405,212.888245 285.039459,213.669067 
z"/>
<path fill="#80462C" opacity="1.000000" stroke="none" 
	d="
M322.060394,207.549683 
	C323.222870,206.279984 324.625092,205.167343 326.302979,203.928436 
	C326.661713,204.104904 326.744781,204.407669 326.921326,205.172699 
	C326.458466,206.321304 325.902161,207.007645 325.160889,207.893860 
	C324.084015,207.964752 323.192078,207.835739 322.060394,207.549683 
z"/>
<path fill="#F58133" opacity="1.000000" stroke="none" 
	d="
M344.438416,265.007751 
	C345.378784,264.331482 346.740814,263.152496 348.150208,263.092896 
	C352.363953,262.914734 354.082458,260.889038 353.990326,256.811646 
	C353.774719,247.274185 353.827972,237.725449 353.336517,228.203766 
	C353.238403,226.302521 351.511658,223.341187 349.982605,222.930984 
	C347.789337,222.342621 344.602844,223.005722 342.780029,224.380463 
	C341.634125,225.244675 342.094177,228.387466 342.062592,230.511429 
	C342.048737,231.445496 342.604614,232.388031 342.613403,233.574310 
	C339.092346,229.863708 334.867950,229.743683 330.708435,231.501556 
	C326.030975,233.478333 322.055115,236.727859 321.297607,242.096024 
	C320.705048,246.295456 323.077942,249.290512 327.020111,250.916809 
	C322.821106,253.568542 319.753845,251.561584 319.116852,245.300430 
	C318.751221,241.706726 318.029083,239.326706 313.377625,240.931473 
	C315.380859,236.829224 317.379852,232.389526 320.182831,228.534409 
	C324.377319,222.765427 331.514954,223.797394 337.441589,222.096420 
	C340.296143,221.277145 343.405396,221.285126 346.200836,220.334747 
	C349.989868,219.046570 353.300232,219.240189 356.734070,221.926498 
	C357.146301,222.450317 357.210144,222.895264 356.941528,223.734924 
	C356.771057,224.752899 356.933044,225.376175 357.095001,225.999451 
	C357.147308,237.354752 357.199615,248.710068 357.143494,260.520508 
	C353.652527,264.333435 349.644562,265.810272 344.438416,265.007751 
z"/>
<path fill="#C4713F" opacity="1.000000" stroke="none" 
	d="
M197.659943,293.895874 
	C190.890900,293.472076 187.709137,290.450684 188.160278,285.298096 
	C188.569183,280.627930 192.232803,277.638458 197.139923,278.034088 
	C201.154205,278.357758 203.618866,280.597168 204.201050,284.517487 
	C204.915161,289.326263 202.814468,292.522919 197.659943,293.895874 
M193.715057,290.044281 
	C195.692322,289.919983 198.017654,290.372772 199.522446,289.465118 
	C200.498917,288.876129 200.950851,286.059479 200.449295,284.669891 
	C199.498856,282.036621 197.231781,279.967346 194.247711,281.693634 
	C190.947464,283.602844 190.412323,286.500488 193.715057,290.044281 
z"/>
<path fill="#F58133" opacity="1.000000" stroke="none" 
	d="
M325.452942,264.998535 
	C328.353668,261.737396 331.961792,262.501556 335.820374,264.658691 
	C332.640472,264.995789 329.275970,265.002472 325.452942,264.998535 
z"/>
<path fill="#F58133" opacity="1.000000" stroke="none" 
	d="
M275.985107,177.393646 
	C279.070068,179.414703 278.774933,181.667725 275.311615,183.877472 
	C275.300140,181.913513 275.636993,179.853058 275.985107,177.393646 
z"/>
<path fill="#D8783E" opacity="1.000000" stroke="none" 
	d="
M357.221710,225.673126 
	C356.933044,225.376175 356.771057,224.752899 356.848511,224.062592 
	C357.174774,224.445984 357.261597,224.896408 357.221710,225.673126 
z"/>
<path fill="#220906" opacity="1.000000" stroke="none" 
	d="
M243.789185,248.826202 
	C237.323212,249.168076 231.202744,249.488327 225.104965,249.243530 
	C223.863022,249.193665 221.825043,247.133881 221.650146,245.803894 
	C220.276001,235.354477 220.740112,234.946777 231.259735,234.945267 
	C236.496399,234.944519 241.733047,234.945114 247.290024,234.945114 
	C246.114502,240.047073 245.128601,244.326035 243.789185,248.826202 
z"/>
<path fill="#D8783E" opacity="1.000000" stroke="none" 
	d="
M247.756836,203.795349 
	C251.244415,201.725525 254.309143,199.130722 257.766968,198.402466 
	C259.817871,197.970535 264.300232,200.192276 264.545410,201.724014 
	C265.320007,206.563751 265.654846,211.973221 264.198975,216.536743 
	C262.592133,221.573624 257.346130,221.269882 252.647949,220.603668 
	C241.262329,218.989182 240.497055,213.228928 247.756836,203.795349 
M262.707031,209.452118 
	C262.232971,206.812042 261.758911,204.171967 261.284851,201.531906 
	C257.793152,202.633179 254.240234,203.579910 250.845062,204.924850 
	C249.750412,205.358505 248.704407,206.706223 248.279556,207.870544 
	C247.460510,210.115295 246.624512,212.573563 246.845261,214.841080 
	C246.909576,215.501709 250.513672,215.943314 252.531082,216.246140 
	C253.994049,216.465714 255.542038,216.112534 257.007141,216.324951 
	C261.788452,217.018097 263.309082,214.744141 262.707031,209.452118 
z"/>
<path fill="#F58133" opacity="1.000000" stroke="none" 
	d="
M289.167358,281.266754 
	C290.804810,276.498749 295.663879,272.912109 299.880585,273.359009 
	C303.637878,273.757172 307.745026,278.838898 307.955597,283.505157 
	C308.060272,285.824677 308.112427,288.170532 307.890961,290.475922 
	C307.403656,295.547760 303.767548,298.840759 298.635101,298.978149 
	C295.685974,299.057098 292.411774,299.816833 289.845856,298.821472 
	C283.782043,296.469208 283.125946,286.599945 288.663696,282.472595 
	C288.401520,286.248810 285.227875,289.666016 288.785004,293.624023 
	C294.795197,298.387085 303.617065,296.332458 304.382233,289.923828 
	C304.812744,286.318481 303.036652,282.449707 302.043152,278.408569 
	C296.621277,275.190247 293.202179,279.466553 289.167358,281.266754 
z"/>
<path fill="#D3763C" opacity="1.000000" stroke="none" 
	d="
M327.348419,250.921936 
	C323.077942,249.290512 320.705048,246.295456 321.297607,242.096024 
	C322.055115,236.727859 326.030975,233.478333 330.708435,231.501556 
	C334.867950,229.743683 339.092346,229.863708 342.635925,233.957855 
	C342.938232,238.069565 342.929565,242.045364 342.633545,246.677460 
	C338.600922,251.145233 333.792419,251.042542 328.989929,250.961975 
	C328.552185,250.950348 328.114471,250.938705 327.348419,250.921936 
M336.906372,247.613495 
	C341.926483,246.356216 339.679230,242.264587 339.803772,239.416458 
	C340.087921,232.917084 336.592865,230.783096 330.976227,234.292786 
	C328.235138,236.005646 325.795807,238.946869 324.404755,241.891769 
	C322.542694,245.833878 324.113190,247.549881 328.596832,247.664963 
	C331.071167,247.728485 333.548828,247.663956 336.906372,247.613495 
z"/>
<path fill="#C4713F" opacity="1.000000" stroke="none" 
	d="
M272.261810,249.301590 
	C269.300934,252.842133 265.054291,253.067474 262.118530,250.741287 
	C259.889740,248.975250 258.839447,244.979416 258.492218,241.839996 
	C258.257385,239.716553 260.153900,237.357376 261.505432,235.024582 
	C261.913696,234.945511 262.140442,235.165192 262.014648,235.522842 
	C261.712280,237.021957 261.413788,238.159622 261.378082,239.305481 
	C261.054230,249.695099 261.228973,249.842270 271.951843,248.962189 
	C272.055786,249.074768 272.261810,249.301590 272.261810,249.301590 
z"/>
<path fill="#C4713F" opacity="1.000000" stroke="none" 
	d="
M261.799072,234.836975 
	C265.272858,231.155869 270.202423,231.343353 273.022461,235.159683 
	C275.701477,238.785172 275.639923,245.089249 272.575012,249.104858 
	C272.261810,249.301590 272.055786,249.074768 271.999115,248.510025 
	C272.005127,247.130356 272.127472,246.315018 272.121582,245.500580 
	C272.036987,233.809052 273.544098,235.226715 262.140442,235.165192 
	C262.140442,235.165192 261.913696,234.945511 261.799072,234.836975 
z"/>
<path fill="#C4713F" opacity="1.000000" stroke="none" 
	d="
M288.634827,293.276093 
	C285.227875,289.666016 288.401520,286.248810 289.019348,282.377075 
	C289.095490,281.999664 289.135010,281.631012 289.151184,281.448883 
	C293.202179,279.466553 296.621277,275.190247 301.967133,278.495789 
	C302.102600,278.873993 301.949341,279.047333 301.552124,278.999939 
	C293.275055,279.524231 288.995300,284.476166 288.963867,293.019348 
	C288.855103,293.106110 288.634827,293.276093 288.634827,293.276093 
z"/>
<path fill="#F58133" opacity="1.000000" stroke="none" 
	d="
M329.165985,251.293976 
	C333.792419,251.042542 338.600922,251.145233 342.630249,247.136475 
	C342.253204,248.368225 341.759796,250.905380 340.901947,251.035263 
	C337.105865,251.609970 333.204987,251.492752 329.165985,251.293976 
z"/>
<path fill="#F58133" opacity="1.000000" stroke="none" 
	d="
M278.262573,281.888855 
	C279.703888,279.334564 281.489624,276.708618 283.598297,273.965515 
	C282.149811,276.504608 280.378357,279.160889 278.262573,281.888855 
z"/>
<path fill="#F58133" opacity="1.000000" stroke="none" 
	d="
M276.282166,295.845673 
	C276.146820,293.880737 276.333466,291.753754 276.710022,289.283936 
	C276.801361,291.188599 276.702759,293.436096 276.282166,295.845673 
z"/>
<path fill="#F58133" opacity="1.000000" stroke="none" 
	d="
M193.433563,289.800385 
	C190.412323,286.500488 190.947464,283.602844 194.247711,281.693634 
	C197.231781,279.967346 199.498856,282.036621 200.449295,284.669891 
	C200.950851,286.059479 200.498917,288.876129 199.522446,289.465118 
	C198.017654,290.372772 195.692322,289.919983 193.433563,289.800385 
z"/>
<path fill="#220906" opacity="1.000000" stroke="none" 
	d="
M262.703674,209.908295 
	C263.309082,214.744141 261.788452,217.018097 257.007141,216.324951 
	C255.542038,216.112534 253.994049,216.465714 252.531082,216.246140 
	C250.513672,215.943314 246.909576,215.501709 246.845261,214.841080 
	C246.624512,212.573563 247.460510,210.115295 248.279556,207.870544 
	C248.704407,206.706223 249.750412,205.358505 250.845062,204.924850 
	C254.240234,203.579910 257.793152,202.633179 261.284851,201.531891 
	C261.758911,204.171967 262.232971,206.812042 262.703674,209.908295 
z"/>
<path fill="#C4713F" opacity="1.000000" stroke="none" 
	d="
M302.178619,278.786804 
	C303.036652,282.449707 304.812744,286.318481 304.382233,289.923828 
	C303.617065,296.332458 294.795197,298.387085 288.785004,293.624023 
	C288.634827,293.276093 288.855103,293.106110 289.417297,293.086456 
	C291.773773,293.153900 293.567413,293.298248 295.362427,293.317902 
	C301.911438,293.389557 301.997955,293.306305 302.036621,286.892212 
	C302.052368,284.277527 301.981049,281.662323 301.949341,279.047333 
	C301.949341,279.047333 302.102600,278.873993 302.178619,278.786804 
z"/>
<path fill="#280E07" opacity="1.000000" stroke="none" 
	d="
M336.465698,247.635315 
	C333.548828,247.663956 331.071167,247.728485 328.596832,247.664963 
	C324.113190,247.549881 322.542694,245.833878 324.404755,241.891769 
	C325.795807,238.946869 328.235138,236.005646 330.976227,234.292786 
	C336.592865,230.783096 340.087921,232.917084 339.803772,239.416458 
	C339.679230,242.264587 341.926483,246.356216 336.465698,247.635315 
z"/>
<path fill="#220906" opacity="1.000000" stroke="none" 
	d="
M262.014648,235.522842 
	C273.544098,235.226715 272.036987,233.809052 272.121582,245.500580 
	C272.127472,246.315018 272.005127,247.130356 271.895172,248.397446 
	C261.228973,249.842270 261.054230,249.695099 261.378082,239.305481 
	C261.413788,238.159622 261.712280,237.021957 262.014648,235.522842 
z"/>
<path fill="#220906" opacity="1.000000" stroke="none" 
	d="
M301.552124,278.999939 
	C301.981049,281.662323 302.052368,284.277527 302.036621,286.892212 
	C301.997955,293.306305 301.911438,293.389557 295.362427,293.317902 
	C293.567413,293.298248 291.773773,293.153900 289.526062,292.999695 
	C288.995300,284.476166 293.275055,279.524231 301.552124,278.999939 
z"/>
</svg>